<?xml version="1.0" encoding="UTF-8"?>
<svg width="1440px" height="882px" viewBox="0 0 1440 882" version="1.1" xmlns="http://www.w3.org/2000/svg" xmlns:xlink="http://www.w3.org/1999/xlink">
    <!-- Generator: Sketch 50 (54983) - http://www.bohemiancoding.com/sketch -->
    <title>City</title>
    <desc>Created with Sketch.</desc>
    <defs>
        <radialGradient cx="50%" cy="17.2136404%" fx="50%" fy="17.2136404%" r="80.7634802%" gradientTransform="translate(0.500000,0.172136),scale(0.625000,1.000000),rotate(90.000000),scale(1.000000,1.685843),translate(-0.500000,-0.172136)" id="radialGradient-1">
            <stop stop-color="#2A085C" offset="0%"></stop>
            <stop stop-color="#0F1024" stop-opacity="0" offset="100%"></stop>
        </radialGradient>
        <rect id="path-2" x="1.42108547e-13" y="2.27373675e-13" width="1440" height="900"></rect>
        <polygon id="path-4" points="0.012 0.1238 1000 0.1238 1000 822.2 0.012 822.2"></polygon>
        <linearGradient x1="50%" y1="0%" x2="50%" y2="100%" id="linearGradient-6">
            <stop stop-color="#FD326D" offset="0%"></stop>
            <stop stop-color="#A50EBF" stop-opacity="0" offset="100%"></stop>
        </linearGradient>
        <ellipse id="path-7" cx="720" cy="670" rx="720" ry="35"></ellipse>
        <filter x="-8.3%" y="-171.4%" width="116.7%" height="442.9%" filterUnits="objectBoundingBox" id="filter-8">
            <feMorphology radius="10" operator="dilate" in="SourceAlpha" result="shadowSpreadOuter1"></feMorphology>
            <feOffset dx="0" dy="0" in="shadowSpreadOuter1" result="shadowOffsetOuter1"></feOffset>
            <feGaussianBlur stdDeviation="30" in="shadowOffsetOuter1" result="shadowBlurOuter1"></feGaussianBlur>
            <feColorMatrix values="0 0 0 0 0.968627451   0 0 0 0 0.188235294   0 0 0 0 0.443137255  0 0 0 1 0" type="matrix" in="shadowBlurOuter1"></feColorMatrix>
        </filter>
    </defs>
    <g id="Web" stroke="none" stroke-width="1" fill="none" fill-rule="evenodd">
        <g id="[NS]Spain-2018-|-Web" transform="translate(0.000000, -544.000000)">
            <g id="Bg" transform="translate(0.000000, 526.000000)">
                <g id="City">
                    <mask id="mask-3" fill="white">
                        <use xlink:href="#path-2"></use>
                    </mask>
                    <use id="Bg" fill="url(#radialGradient-1)" transform="translate(720.000000, 450.000000) rotate(-180.000000) translate(-720.000000, -450.000000) " xlink:href="#path-2"></use>
                    <g id="Shape" mask="url(#mask-3)">
                        <g transform="translate(0.000000, 252.000000)">
                            <g id="City" stroke-width="1" fill-rule="evenodd" transform="translate(220.000000, 0.000000)">
                                <mask id="mask-5" fill="white">
                                    <use xlink:href="#path-4"></use>
                                </mask>
                                <g id="Clip-315"></g>
                                <path d="M983.6,522.8 L983.6,543.2 L975.8,543.2 L975.8,532.6 L966.2,532.6 L966.2,538.8 L961.6,538.8 L961.6,547.2 L954,547.2 L954,540.6 L943,540.6 L943,535 L935.4,535 L935.416,528.164 L931,528.144 L931,523.8 L925.4,523.8 L925.4,528.138 L922.3,528.146 L922.366,535 L915.2,535 L915.2,540.6 L913.6,540.6 L913.6,546.308 L898.85,546.188 L898.908,513 L893.8,513 L893.8,496.8 L877,496.8 L877,507 L868.356,507 L868.284,545 L860.4,545 L860.4,526 L852.4,526 L852.4,482.8 L849.4,482.8 L849.4,471.8 L840.4,471.8 L840.4,482.8 L833.2,482.8 L833.2,497.2 L817.266,497.2 L811.372,495.51 L803,492.93 L803,497.2 L791.2,497.2 L791.2,444.002 L775.44,427.6 L772.6,427.6 L772.6,390.2 L763.808,390.2 L763.79,381.262 L732.8,381.288 L732.8,366.472 L729,366.456 L729,355.438 L719.422,355.494 L719.382,366.418 L714.048,366.398 L713.982,381.286 L698.2,381.284 L698.2,519.2 L680.8,519.2 L680.8,287.854 L657.34,281.794 L656.272,254.1 C658.796,252.648 660.514,249.958 660.514,246.838 C660.514,243.522 658.572,240.68 655.782,239.312 L653.962,184.326 L652.916,128.424 L650.694,184.318 L648.584,239.226 C645.704,240.56 643.696,243.458 643.696,246.838 C643.696,249.988 645.448,252.7 648.012,254.14 L647.224,281.574 L621.6,288.426 L621.6,524.8 L599,524.8 L599,363.2 L597.4,363.2 L597.4,360.2 L595.2,360.2 L595.2,363.2 L580.2,363.2 L580.2,348.166 L578.2,348.2 L578.2,363.2 L574.2,363.2 L574.2,361.2 L569.2,361.2 L569.2,363.2 L552.2,363.2 L552.2,359.8 L550.2,359.8 L550.2,356.8 L547.2,356.8 L547.2,363.2 L544.2,363.2 L544.2,519.674 L542.766,516.936 L532.25,496.726 L526.6,496.67 L526.6,325.6 L523,325.6 L523,324 L520.2,324 L520.2,325.6 L514.6,325.6 L514.6,324 L508.8,324 L508.8,325.6 L503.2,325.6 L503.2,315.35 L495.4,315.386 L495.4,325.6 L478.6,325.6 L478.6,507.272 L472.182,507.398 L471,507.42 L471,494.85 L470.822,341.2 L465.8,341.2 L465.8,339.6 L462,339.6 L462,341.2 L460.2,341.2 L460.2,336.8 L456.2,336.8 L456.2,341.2 L450.4,341.2 L450.4,339.6 L445,339.6 L445,341.2 L440.8,341.2 L440.8,339.6 L437,339.6 L437,341.2 L432.2,341.2 L432.2,335.2 L427.4,335.2 L427.4,341.2 L423.8,341.2 L423.8,507.6 L416.6,507.6 L416.6,244 L409.6,244 L409.6,230 L404,230 L404,218.8 L394.534,218.8 L390.6,194 L386.666,218.8 L377.2,218.8 L377.2,230 L370.6,230 L370.6,244 L364.8,244 L364.8,448.2 L355.8,448.2 L355.8,327 L352.2,327 L352.2,322.8 L340.2,322.8 L340.2,312.4 L328.6,312.4 L328.6,322.8 L316.6,322.8 L316.6,327 L313.4,327 L313.4,431.8 L308.6,431.8 L308.6,401.6 L289.4,401.6 L289.4,426.2 L281,426.2 L281,368.2 L274.2,368.2 L274.2,352.6 L267.8,352.6 L267.8,346.8 L255.4,346.8 L255.4,352.6 L245.8,352.6 L228.6,372.674 L228.6,425.8 L216.35,425.8 L211.6,420.39 L211.6,331.226 L205.8,331.132 L205.8,327.4 L194.2,327.4 L194.2,320.6 L189.6,320.6 L189.6,327.4 L175.512,327.4 L175.544,309.338 L172.982,309.276 L172.918,327.4 L164.4,327.4 L164.4,330.466 L158.8,330.37 L158.8,432.2 L152,432.2 L152,462.6 L147.6,462.6 L147.6,537.8 L133.6,537.8 L133.6,503.6 L127.2,503.6 L127.2,478.4 L111,478.4 L111,436.6 L105.4,436.6 L105.4,431.818 L93.6,418.104 L93.6,408.6 L86.5334,408.6 L86.6,395.828 L82.1498,395.84 L82.1666,374.8 L78.9334,374.8 L78.9156,395.842 L74.4,395.8 L74.4,408.6 L67.2,408.6 L67.2,418.39 L57.4,429.818 L57.4,436.4 L50.6,436.4 L50.6,582.2 L48.2,582.2 L48.2,589.8 L45.6,589.8 L45.6,512.466 L40.5024,512.404 L33.904,496.4 L30.4,496.4 L30.4,489.05 L20.525,489.004 L20.45,496.4 L15.9334,496.4 L9.404,512.2 L4.6,512.2 L4.6,585.8 L1.4,585.8 L1.4,511.4 L0,511.4 L0,656.8 L1000,656.8 L1000,522.8 L983.6,522.8" id="Fill-317" fill="url(#linearGradient-6)" mask="url(#mask-5)"></path>
                                <polygon id="Fill-318" fill="url(#linearGradient-6)" mask="url(#mask-5)" points="960.6 608.2 941 608.2 941 596.6 928.2 596.6 928.2 593.4 921.8 593.4 921.8 581 907.6 581 907.6 588.6 900.4 588.6 900.4 601 892.4 601 892.4 583.6 885 583.6 885 552.4 825.2 552.4 825.2 495.8 818.086 495.8 812.23 485.8 809.4 474.8 788.2 474.8 788.2 485.8 784.93 485.8 779.936 495.8 773.8 495.8 773.8 527 759.8 527 759.8 571.8 741.6 571.8 741.6 515.8 738.2 515.8 738.2 492.2 731.4 492.2 731.4 416.8 722.034 405.8 694.734 405.8 689.208 416.8 685.8 416.8 685.8 498.8 671 498.8 671 432.8 642.7 432.8 624.8 454.026 624.8 524.6 619.4 524.6 619.4 469.6 613.6 469.6 613.6 465.2 601.2 465.2 601.2 469.6 596.4 469.6 596.4 413.8 588 413.8 588 411 579.8 411 579.8 398.2 567 398.2 567 411 559.8 411 559.8 413.8 551.4 413.8 551.4 425.8 544.6 425.8 544.6 352 539 352 539 347.2 516.2 347.2 516.2 352 497.8 352 497.8 347.2 475 347.2 475 352 470.6 352 470.6 474.8 463 474.8 463 390.8 410.6 390.8 410.6 532.4 395.2 532.4 395.2 441 384 441 384 434.8 358 434.8 358 441 347 441 347 547 327 547 327 384.4 308.2 384.4 308.2 304 294.6 304 294.6 384.4 276 384.4 276 530.4 261.2 530.4 261.2 513.6 237.2 513.6 237.2 488.4 179.4 488.4 179.4 540.6 149.4 540.6 149.4 525.8 138.8 525.8 138.8 518 124.6 518 124.6 525.8 116 525.8 116 560.2 89.6 560.2 89.6 578 70.4 578 70.4 563.2 54.2 563.2 54.2 544.6 33.4 544.6 33.4 560.2 0 560.2 0 666.559307 1000 666.559307 1000 595.2 960.6 595.2"></polygon>
                                <polygon id="Fill-319" fill="url(#linearGradient-6)" mask="url(#mask-5)" points="419.6 396.3 451.7 396.3 451.7 383.6 419.6 383.6"></polygon>
                                <polygon id="Fill-320" fill="url(#linearGradient-6)" mask="url(#mask-5)" points="191.8 493.334 197.6666 493.334 197.6666 474.534 191.8 474.534"></polygon>
                                <polygon id="Fill-321" fill="url(#linearGradient-6)" mask="url(#mask-5)" points="213.4 493.334 219.266 493.334 219.266 482.934 213.4 482.934"></polygon>
                                <polygon id="Fill-322" fill="url(#linearGradient-6)" mask="url(#mask-5)" points="658.734 439.6 666.066 439.6 666.066 424.054 658.734 424.054"></polygon>
                                <polygon id="Fill-323" fill="#152420" mask="url(#mask-5)" points="796.2 481.994 800.6 481.994 800.6 466.45 796.2 466.45"></polygon>
                                <polygon id="Fill-324" fill="url(#linearGradient-6)" mask="url(#mask-5)" points="649.134 543.2 671.022 543.2 671.022 522.666 649.134 522.666"></polygon>
                                <polygon id="Fill-326" fill="#0DE0EB" mask="url(#mask-5)" points="6.7 578.7 15.3 578.7 15.3 570.1 6.7 570.1"></polygon>
                                <polygon id="Fill-327" fill="#0DE0EB" mask="url(#mask-5)" points="97.95 567.7 101.55 567.7 101.55 564.1 97.95 564.1"></polygon>
                                <polygon id="Fill-328" fill="#0DE0EB" mask="url(#mask-5)" points="109.35 567.7 112.95 567.7 112.95 564.1 109.35 564.1"></polygon>
                                <polygon id="Fill-329" fill="#0DE0EB" mask="url(#mask-5)" points="92.25 573.234 95.85 573.234 95.85 569.634 92.25 569.634"></polygon>
                                <polygon id="Fill-330" fill="#0DE0EB" mask="url(#mask-5)" points="103.65 573.234 107.25 573.234 107.25 569.634 103.65 569.634"></polygon>
                                <polygon id="Fill-331" fill="#0DE0EB" mask="url(#mask-5)" points="109.35 573.234 112.95 573.234 112.95 569.634 109.35 569.634"></polygon>
                                <polygon id="Fill-332" fill="#0DE0EB" mask="url(#mask-5)" points="92.25 578.766 95.85 578.766 95.85 575.166 92.25 575.166"></polygon>
                                <polygon id="Fill-333" fill="#0DE0EB" mask="url(#mask-5)" points="97.95 578.766 101.55 578.766 101.55 575.166 97.95 575.166"></polygon>
                                <polygon id="Fill-334" fill="#0DE0EB" mask="url(#mask-5)" points="92.25 584.3 95.85 584.3 95.85 580.7 92.25 580.7"></polygon>
                                <polygon id="Fill-335" fill="#0DE0EB" mask="url(#mask-5)" points="109.35 584.3 112.95 584.3 112.95 580.7 109.35 580.7"></polygon>
                                <polygon id="Fill-336" fill="#0DE0EB" mask="url(#mask-5)" points="103.65 589.834 107.25 589.834 107.25 586.234 103.65 586.234"></polygon>
                                <polygon id="Fill-337" fill="#0DE0EB" mask="url(#mask-5)" points="109.35 589.834 112.95 589.834 112.95 586.234 109.35 586.234"></polygon>
                                <polygon id="Fill-338" fill="#0DE0EB" mask="url(#mask-5)" points="92.25 595.366 95.85 595.366 95.85 591.766 92.25 591.766"></polygon>
                                <polygon id="Fill-339" fill="#0DE0EB" mask="url(#mask-5)" points="97.95 595.366 101.55 595.366 101.55 591.766 97.95 591.766"></polygon>
                                <polygon id="Fill-340" fill="#0DE0EB" mask="url(#mask-5)" points="103.65 595.366 107.25 595.366 107.25 591.766 103.65 591.766"></polygon>
                                <polygon id="Fill-341" fill="#0DE0EB" mask="url(#mask-5)" points="97.95 600.9 101.55 600.9 101.55 597.3 97.95 597.3"></polygon>
                                <polygon id="Fill-342" fill="#0DE0EB" mask="url(#mask-5)" points="109.35 600.9 112.95 600.9 112.95 597.3 109.35 597.3"></polygon>
                                <polygon id="Fill-343" fill="#0DE0EB" mask="url(#mask-5)" points="92.25 606.434 95.85 606.434 95.85 602.834 92.25 602.834"></polygon>
                                <polygon id="Fill-344" fill="#0DE0EB" mask="url(#mask-5)" points="97.95 606.434 101.55 606.434 101.55 602.834 97.95 602.834"></polygon>
                                <polygon id="Fill-345" fill="#0DE0EB" mask="url(#mask-5)" points="103.65 606.434 107.25 606.434 107.25 602.834 103.65 602.834"></polygon>
                                <polygon id="Fill-346" fill="#0DE0EB" mask="url(#mask-5)" points="92.25 611.966 95.85 611.966 95.85 608.366 92.25 608.366"></polygon>
                                <polygon id="Fill-347" fill="#0DE0EB" mask="url(#mask-5)" points="97.95 617.5 101.55 617.5 101.55 613.9 97.95 613.9"></polygon>
                                <polygon id="Fill-348" fill="#0DE0EB" mask="url(#mask-5)" points="103.65 617.5 107.25 617.5 107.25 613.9 103.65 613.9"></polygon>
                                <polygon id="Fill-349" fill="#0DE0EB" mask="url(#mask-5)" points="910.5 600.066 914.1 600.066 914.1 596.466 910.5 596.466"></polygon>
                                <polygon id="Fill-350" fill="#0DE0EB" mask="url(#mask-5)" points="921.9 600.066 925.5 600.066 925.5 596.466 921.9 596.466"></polygon>
                                <polygon id="Fill-351" fill="#0DE0EB" mask="url(#mask-5)" points="904.8 605.6 908.4 605.6 908.4 602 904.8 602"></polygon>
                                <polygon id="Fill-352" fill="#0DE0EB" mask="url(#mask-5)" points="916.2 605.6 919.8 605.6 919.8 602 916.2 602"></polygon>
                                <polygon id="Fill-353" fill="#0DE0EB" mask="url(#mask-5)" points="921.9 605.6 925.5 605.6 925.5 602 921.9 602"></polygon>
                                <polygon id="Fill-354" fill="#0DE0EB" mask="url(#mask-5)" points="904.8 611.134 908.4 611.134 908.4 607.534 904.8 607.534"></polygon>
                                <polygon id="Fill-355" fill="#0DE0EB" mask="url(#mask-5)" points="910.5 611.134 914.1 611.134 914.1 607.534 910.5 607.534"></polygon>
                                <polygon id="Fill-356" fill="#0DE0EB" mask="url(#mask-5)" points="904.8 616.666 908.4 616.666 908.4 613.066 904.8 613.066"></polygon>
                                <polygon id="Fill-357" fill="#0DE0EB" mask="url(#mask-5)" points="921.9 616.666 925.5 616.666 925.5 613.066 921.9 613.066"></polygon>
                                <polygon id="Fill-358" fill="#0DE0EB" mask="url(#mask-5)" points="916.2 622.2 919.8 622.2 919.8 618.6 916.2 618.6"></polygon>
                                <polygon id="Fill-359" fill="#0DE0EB" mask="url(#mask-5)" points="921.9 622.2 925.5 622.2 925.5 618.6 921.9 618.6"></polygon>
                                <polygon id="Fill-360" fill="#0DE0EB" mask="url(#mask-5)" points="904.8 627.734 908.4 627.734 908.4 624.134 904.8 624.134"></polygon>
                                <polygon id="Fill-361" fill="#0DE0EB" mask="url(#mask-5)" points="910.5 627.734 914.1 627.734 914.1 624.134 910.5 624.134"></polygon>
                                <polygon id="Fill-362" fill="#0DE0EB" mask="url(#mask-5)" points="916.2 627.734 919.8 627.734 919.8 624.134 916.2 624.134"></polygon>
                                <polygon id="Fill-363" fill="#0DE0EB" mask="url(#mask-5)" points="910.5 633.266 914.1 633.266 914.1 629.666 910.5 629.666"></polygon>
                                <polygon id="Fill-364" fill="#0DE0EB" mask="url(#mask-5)" points="921.9 633.266 925.5 633.266 925.5 629.666 921.9 629.666"></polygon>
                                <polygon id="Fill-365" fill="#0DE0EB" mask="url(#mask-5)" points="904.8 638.8 908.4 638.8 908.4 635.2 904.8 635.2"></polygon>
                                <polygon id="Fill-366" fill="#0DE0EB" mask="url(#mask-5)" points="910.5 638.8 914.1 638.8 914.1 635.2 910.5 635.2"></polygon>
                                <polygon id="Fill-367" fill="#0DE0EB" mask="url(#mask-5)" points="916.2 638.8 919.8 638.8 919.8 635.2 916.2 635.2"></polygon>
                                <polygon id="Fill-368" fill="#0DE0EB" mask="url(#mask-5)" points="903.7 595.534 907.3 595.534 907.3 591.934 903.7 591.934"></polygon>
                                <polygon id="Fill-369" fill="#0DE0EB" mask="url(#mask-5)" points="910.5 589.366 914.1 589.366 914.1 585.766 910.5 585.766"></polygon>
                                <polygon id="Fill-370" fill="#0DE0EB" mask="url(#mask-5)" points="916.2 589.366 919.8 589.366 919.8 585.766 916.2 585.766"></polygon>
                                <polygon id="Fill-371" fill="#0DE0EB" mask="url(#mask-5)" points="373.574 456.974 380.132 456.974 380.132 450.418 373.574 450.418"></polygon>
                                <polygon id="Fill-372" fill="#0DE0EB" mask="url(#mask-5)" points="352.812 456.974 359.368 456.974 359.368 450.418 352.812 450.418"></polygon>
                                <polygon id="Fill-373" fill="#0DE0EB" mask="url(#mask-5)" points="383.956 467.052 390.512 467.052 390.512 460.496 383.956 460.496"></polygon>
                                <polygon id="Fill-374" fill="#0DE0EB" mask="url(#mask-5)" points="363.194 467.052 369.75 467.052 369.75 460.496 363.194 460.496"></polygon>
                                <polygon id="Fill-375" fill="#0DE0EB" mask="url(#mask-5)" points="352.812 467.052 359.368 467.052 359.368 460.496 352.812 460.496"></polygon>
                                <polygon id="Fill-376" fill="#0DE0EB" mask="url(#mask-5)" points="383.956 477.13 390.512 477.13 390.512 470.572 383.956 470.572"></polygon>
                                <polygon id="Fill-377" fill="#0DE0EB" mask="url(#mask-5)" points="373.574 477.13 380.132 477.13 380.132 470.572 373.574 470.572"></polygon>
                                <polygon id="Fill-378" fill="#0DE0EB" mask="url(#mask-5)" points="383.956 487.206 390.512 487.206 390.512 480.65 383.956 480.65"></polygon>
                                <polygon id="Fill-379" fill="#0DE0EB" mask="url(#mask-5)" points="352.812 487.206 359.368 487.206 359.368 480.65 352.812 480.65"></polygon>
                                <polygon id="Fill-380" fill="#0DE0EB" mask="url(#mask-5)" points="363.194 497.284 369.75 497.284 369.75 490.728 363.194 490.728"></polygon>
                                <polygon id="Fill-381" fill="#0DE0EB" mask="url(#mask-5)" points="352.812 497.284 359.368 497.284 359.368 490.728 352.812 490.728"></polygon>
                                <polygon id="Fill-382" fill="#0DE0EB" mask="url(#mask-5)" points="383.956 507.362 390.512 507.362 390.512 500.806 383.956 500.806"></polygon>
                                <polygon id="Fill-383" fill="#0DE0EB" mask="url(#mask-5)" points="373.574 507.362 380.132 507.362 380.132 500.806 373.574 500.806"></polygon>
                                <polygon id="Fill-384" fill="#0DE0EB" mask="url(#mask-5)" points="363.194 507.362 369.75 507.362 369.75 500.806 363.194 500.806"></polygon>
                                <polygon id="Fill-385" fill="#0DE0EB" mask="url(#mask-5)" points="373.574 517.44 380.132 517.44 380.132 510.884 373.574 510.884"></polygon>
                                <polygon id="Fill-386" fill="#0DE0EB" mask="url(#mask-5)" points="352.812 517.44 359.368 517.44 359.368 510.884 352.812 510.884"></polygon>
                                <polygon id="Fill-387" fill="#0DE0EB" mask="url(#mask-5)" points="383.956 527.518 390.512 527.518 390.512 520.96 383.956 520.96"></polygon>
                                <polygon id="Fill-388" fill="#0DE0EB" mask="url(#mask-5)" points="373.574 527.518 380.132 527.518 380.132 520.96 373.574 520.96"></polygon>
                                <polygon id="Fill-389" fill="#0DE0EB" mask="url(#mask-5)" points="363.194 527.518 369.75 527.518 369.75 520.96 363.194 520.96"></polygon>
                                <polygon id="Fill-390" fill="#0DE0EB" mask="url(#mask-5)" points="383.956 537.594 390.512 537.594 390.512 531.038 383.956 531.038"></polygon>
                                <polygon id="Fill-391" fill="#0DE0EB" mask="url(#mask-5)" points="373.574 547.672 380.132 547.672 380.132 541.116 373.574 541.116"></polygon>
                                <polygon id="Fill-392" fill="#0DE0EB" mask="url(#mask-5)" points="363.194 547.672 369.75 547.672 369.75 541.116 363.194 541.116"></polygon>
                                <polygon id="Fill-393" fill="#0DE0EB" mask="url(#mask-5)" points="871.7218 564.936 878.278 564.936 878.278 558.38 871.7218 558.38"></polygon>
                                <polygon id="Fill-394" fill="#0DE0EB" mask="url(#mask-5)" points="861.34 564.936 867.898 564.936 867.898 558.38 861.34 558.38"></polygon>
                                <polygon id="Fill-395" fill="#0DE0EB" mask="url(#mask-5)" points="850.96 564.936 857.516 564.936 857.516 558.38 850.96 558.38"></polygon>
                                <polygon id="Fill-396" fill="#0DE0EB" mask="url(#mask-5)" points="871.7218 575.014 878.278 575.014 878.278 568.458 871.7218 568.458"></polygon>
                                <polygon id="Fill-397" fill="#0DE0EB" mask="url(#mask-5)" points="977.64 606.436 984.198 606.436 984.198 599.88 977.64 599.88"></polygon>
                                <polygon id="Fill-398" fill="#0DE0EB" mask="url(#mask-5)" points="988.022 606.436 994.578 606.436 994.578 599.88 988.022 599.88"></polygon>
                                <polygon id="Fill-399" fill="#0DE0EB" mask="url(#mask-5)" points="967.26 616.514 973.816 616.514 973.816 609.958 967.26 609.958"></polygon>
                                <polygon id="Fill-400" fill="#0DE0EB" mask="url(#mask-5)" points="861.34 585.092 867.898 585.092 867.898 578.536 861.34 578.536"></polygon>
                                <polygon id="Fill-401" fill="#0DE0EB" mask="url(#mask-5)" points="850.96 585.092 857.516 585.092 857.516 578.536 850.96 578.536"></polygon>
                                <polygon id="Fill-402" fill="#0DE0EB" mask="url(#mask-5)" points="21.8 578.7 30.4 578.7 30.4 570.1 21.8 570.1"></polygon>
                                <polygon id="Fill-403" fill="#0DE0EB" mask="url(#mask-5)" points="36.9 578.7 45.5 578.7 45.5 570.1 36.9 570.1"></polygon>
                                <polygon id="Fill-404" fill="#0DE0EB" mask="url(#mask-5)" points="52 578.7 60.6 578.7 60.6 570.1 52 570.1"></polygon>
                                <polygon id="Fill-405" fill="#0DE0EB" mask="url(#mask-5)" points="185.551 506.3 194.151 506.3 194.151 497.7 185.551 497.7"></polygon>
                                <polygon id="Fill-406" fill="#0DE0EB" mask="url(#mask-5)" points="200.652 506.3 209.252 506.3 209.252 497.7 200.652 497.7"></polygon>
                                <polygon id="Fill-407" fill="#0DE0EB" mask="url(#mask-5)" points="215.752 506.3 224.352 506.3 224.352 497.7 215.752 497.7"></polygon>
                                <polygon id="Fill-408" fill="#0DE0EB" mask="url(#mask-5)" points="185.551 529.234 194.151 529.234 194.151 520.634 185.551 520.634"></polygon>
                                <polygon id="Fill-409" fill="#0DE0EB" mask="url(#mask-5)" points="200.652 529.234 209.252 529.234 209.252 520.634 200.652 520.634"></polygon>
                                <polygon id="Fill-410" fill="#0DE0EB" mask="url(#mask-5)" points="215.752 529.234 224.352 529.234 224.352 520.634 215.752 520.634"></polygon>
                                <polygon id="Fill-411" fill="#0DE0EB" mask="url(#mask-5)" points="185.551 552.166 194.151 552.166 194.151 543.566 185.551 543.566"></polygon>
                                <polygon id="Fill-412" fill="#0DE0EB" mask="url(#mask-5)" points="200.652 552.166 209.252 552.166 209.252 543.566 200.652 543.566"></polygon>
                                <polygon id="Fill-413" fill="#0DE0EB" mask="url(#mask-5)" points="215.752 552.166 224.352 552.166 224.352 543.566 215.752 543.566"></polygon>
                                <polygon id="Fill-414" fill="#0DE0EB" mask="url(#mask-5)" points="185.551 575.1 194.151 575.1 194.151 566.5 185.551 566.5"></polygon>
                                <polygon id="Fill-415" fill="#0DE0EB" mask="url(#mask-5)" points="200.652 575.1 209.252 575.1 209.252 566.5 200.652 566.5"></polygon>
                                <polygon id="Fill-416" fill="#0DE0EB" mask="url(#mask-5)" points="215.752 575.1 224.352 575.1 224.352 566.5 215.752 566.5"></polygon>
                                <polygon id="Fill-417" fill="#0DE0EB" mask="url(#mask-5)" points="185.551 598.034 194.151 598.034 194.151 589.434 185.551 589.434"></polygon>
                                <polygon id="Fill-418" fill="#0DE0EB" mask="url(#mask-5)" points="200.652 598.034 209.252 598.034 209.252 589.434 200.652 589.434"></polygon>
                                <polygon id="Fill-419" fill="#0DE0EB" mask="url(#mask-5)" points="215.752 598.034 224.352 598.034 224.352 589.434 215.752 589.434"></polygon>
                                <polygon id="Fill-420" fill="#0DE0EB" mask="url(#mask-5)" points="185.551 620.966 194.151 620.966 194.151 612.366 185.551 612.366"></polygon>
                                <polygon id="Fill-421" fill="#0DE0EB" mask="url(#mask-5)" points="200.652 620.966 209.252 620.966 209.252 612.366 200.652 612.366"></polygon>
                                <polygon id="Fill-422" fill="#0DE0EB" mask="url(#mask-5)" points="215.752 620.966 224.352 620.966 224.352 612.366 215.752 612.366"></polygon>
                                <polygon id="Fill-423" fill="#0DE0EB" mask="url(#mask-5)" points="689.022 432.654 697.622 432.654 697.622 424.054 689.022 424.054"></polygon>
                                <polygon id="Fill-424" fill="#0DE0EB" mask="url(#mask-5)" points="704.122 432.654 712.722 432.654 712.722 424.054 704.122 424.054"></polygon>
                                <polygon id="Fill-425" fill="#0DE0EB" mask="url(#mask-5)" points="719.222 432.654 727.822 432.654 727.822 424.054 719.222 424.054"></polygon>
                                <polygon id="Fill-426" fill="#0DE0EB" mask="url(#mask-5)" points="704.122 455.588 712.722 455.588 712.722 446.988 704.122 446.988"></polygon>
                                <polygon id="Fill-427" fill="#0DE0EB" mask="url(#mask-5)" points="719.222 455.588 727.822 455.588 727.822 446.988 719.222 446.988"></polygon>
                                <polygon id="Fill-428" fill="#0DE0EB" mask="url(#mask-5)" points="689.022 478.522 697.622 478.522 697.622 469.922 689.022 469.922"></polygon>
                                <polygon id="Fill-429" fill="#0DE0EB" mask="url(#mask-5)" points="704.122 478.522 712.722 478.522 712.722 469.922 704.122 469.922"></polygon>
                                <polygon id="Fill-430" fill="#0DE0EB" mask="url(#mask-5)" points="694.222 501.454 702.822 501.454 702.822 492.854 694.222 492.854"></polygon>
                                <polygon id="Fill-431" fill="#0DE0EB" mask="url(#mask-5)" points="719.222 501.454 727.822 501.454 727.822 492.854 719.222 492.854"></polygon>
                                <polygon id="Fill-432" fill="#0DE0EB" mask="url(#mask-5)" points="692.022 524.388 700.622 524.388 700.622 515.788 692.022 515.788"></polygon>
                                <polygon id="Fill-433" fill="#0DE0EB" mask="url(#mask-5)" points="708.422 524.388 717.022 524.388 717.022 515.788 708.422 515.788"></polygon>
                                <polygon id="Fill-434" fill="#0DE0EB" mask="url(#mask-5)" points="605.172 487.776 613.772 487.776 613.772 479.176 605.172 479.176"></polygon>
                                <polygon id="Fill-435" fill="#0DE0EB" mask="url(#mask-5)" points="605.172 514.6 613.772 514.6 613.772 506 605.172 506"></polygon>
                                <polygon id="Fill-436" fill="#0DE0EB" mask="url(#mask-5)" points="605.172 541.424 613.772 541.424 613.772 532.824 605.172 532.824"></polygon>
                                <polygon id="Fill-437" fill="#0DE0EB" mask="url(#mask-5)" points="605.172 568.246 613.772 568.246 613.772 559.646 605.172 559.646"></polygon>
                                <polygon id="Fill-438" fill="#0DE0EB" mask="url(#mask-5)" points="605.172 595.07 613.772 595.07 613.772 586.47 605.172 586.47"></polygon>
                                <polygon id="Fill-439" fill="#0DE0EB" mask="url(#mask-5)" points="697.622 547.322 706.222 547.322 706.222 538.722 697.622 538.722"></polygon>
                                <polygon id="Fill-440" fill="#0DE0EB" mask="url(#mask-5)" points="719.222 547.322 727.822 547.322 727.822 538.722 719.222 538.722"></polygon>
                                <polygon id="Fill-441" fill="#0DE0EB" mask="url(#mask-5)" points="480.65 370.21 489.25 370.21 489.25 361.61 480.65 361.61"></polygon>
                                <polygon id="Fill-442" fill="#0DE0EB" mask="url(#mask-5)" points="495.75 370.21 504.35 370.21 504.35 361.61 495.75 361.61"></polygon>
                                <polygon id="Fill-443" fill="#0DE0EB" mask="url(#mask-5)" points="510.85 370.21 519.45 370.21 519.45 361.61 510.85 361.61"></polygon>
                                <polygon id="Fill-444" fill="#0DE0EB" mask="url(#mask-5)" points="480.65 393.144 489.25 393.144 489.25 384.544 480.65 384.544"></polygon>
                                <polygon id="Fill-445" fill="#0DE0EB" mask="url(#mask-5)" points="510.85 393.144 519.45 393.144 519.45 384.544 510.85 384.544"></polygon>
                                <polygon id="Fill-446" fill="#0DE0EB" mask="url(#mask-5)" points="480.65 416.076 489.25 416.076 489.25 407.476 480.65 407.476"></polygon>
                                <polygon id="Fill-447" fill="#0DE0EB" mask="url(#mask-5)" points="495.75 416.076 504.35 416.076 504.35 407.476 495.75 407.476"></polygon>
                                <polygon id="Fill-448" fill="#0DE0EB" mask="url(#mask-5)" points="510.85 416.076 519.45 416.076 519.45 407.476 510.85 407.476"></polygon>
                                <polygon id="Fill-449" fill="#0DE0EB" mask="url(#mask-5)" points="480.65 439.01 489.25 439.01 489.25 430.41 480.65 430.41"></polygon>
                                <polygon id="Fill-450" fill="#0DE0EB" mask="url(#mask-5)" points="495.75 439.01 504.35 439.01 504.35 430.41 495.75 430.41"></polygon>
                                <polygon id="Fill-451" fill="#0DE0EB" mask="url(#mask-5)" points="510.85 439.01 519.45 439.01 519.45 430.41 510.85 430.41"></polygon>
                                <polygon id="Fill-452" fill="#0DE0EB" mask="url(#mask-5)" points="480.65 461.944 489.25 461.944 489.25 453.344 480.65 453.344"></polygon>
                                <polygon id="Fill-453" fill="#0DE0EB" mask="url(#mask-5)" points="495.75 461.944 504.35 461.944 504.35 453.344 495.75 453.344"></polygon>
                                <polygon id="Fill-454" fill="#0DE0EB" mask="url(#mask-5)" points="480.65 484.876 489.25 484.876 489.25 476.276 480.65 476.276"></polygon>
                                <polygon id="Fill-455" fill="#0DE0EB" mask="url(#mask-5)" points="510.85 484.876 519.45 484.876 519.45 476.276 510.85 476.276"></polygon>
                                <polygon id="Fill-456" fill="#0DE0EB" mask="url(#mask-5)" points="525.95 393.144 534.55 393.144 534.55 384.544 525.95 384.544"></polygon>
                                <polygon id="Fill-457" fill="#0DE0EB" mask="url(#mask-5)" points="525.95 416.076 534.55 416.076 534.55 407.476 525.95 407.476"></polygon>
                                <polygon id="Fill-458" fill="#0DE0EB" mask="url(#mask-5)" points="525.95 439.01 534.55 439.01 534.55 430.41 525.95 430.41"></polygon>
                                <polygon id="Fill-459" fill="#0DE0EB" mask="url(#mask-5)" points="525.95 461.944 534.55 461.944 534.55 453.344 525.95 453.344"></polygon>
                                <polygon id="Fill-460" fill="#0DE0EB" mask="url(#mask-5)" points="525.95 484.876 534.55 484.876 534.55 476.276 525.95 476.276"></polygon>
                                <polygon id="Fill-461" fill="#0DE0EB" mask="url(#mask-5)" points="281.534 405.71 295.4 405.71 295.4 391.844 281.534 391.844"></polygon>
                                <polygon id="Fill-462" fill="#0DE0EB" mask="url(#mask-5)" points="307.534 429.576 321.4 429.576 321.4 415.71 307.534 415.71"></polygon>
                                <polygon id="Fill-463" fill="#0DE0EB" mask="url(#mask-5)" points="556.042 439.01 562.776 439.01 562.776 432.276 556.042 432.276"></polygon>
                                <polygon id="Fill-464" fill="#0DE0EB" mask="url(#mask-5)" points="564.71 439.01 571.442 439.01 571.442 432.276 564.71 432.276"></polygon>
                                <polygon id="Fill-465" fill="#0DE0EB" mask="url(#mask-5)" points="573.376 439.01 580.11 439.01 580.11 432.276 573.376 432.276"></polygon>
                                <polygon id="Fill-466" fill="#0DE0EB" mask="url(#mask-5)" points="582.042 439.01 588.776 439.01 588.776 432.276 582.042 432.276"></polygon>
                                <polygon id="Fill-467" fill="#0DE0EB" mask="url(#mask-5)" points="556.042 447.544 562.776 447.544 562.776 440.81 556.042 440.81"></polygon>
                                <polygon id="Fill-468" fill="#0DE0EB" mask="url(#mask-5)" points="564.71 447.544 571.442 447.544 571.442 440.81 564.71 440.81"></polygon>
                                <polygon id="Fill-469" fill="#0DE0EB" mask="url(#mask-5)" points="573.376 447.544 580.11 447.544 580.11 440.81 573.376 440.81"></polygon>
                                <polygon id="Fill-470" fill="#0DE0EB" mask="url(#mask-5)" points="582.042 447.544 588.776 447.544 588.776 440.81 582.042 440.81"></polygon>
                                <polygon id="Fill-471" fill="#0DE0EB" mask="url(#mask-5)" points="556.042 456.076 562.776 456.076 562.776 449.344 556.042 449.344"></polygon>
                                <polygon id="Fill-472" fill="#0DE0EB" mask="url(#mask-5)" points="564.71 456.076 571.442 456.076 571.442 449.344 564.71 449.344"></polygon>
                                <polygon id="Fill-473" fill="#0DE0EB" mask="url(#mask-5)" points="573.376 456.076 580.11 456.076 580.11 449.344 573.376 449.344"></polygon>
                                <polygon id="Fill-474" fill="#0DE0EB" mask="url(#mask-5)" points="582.042 456.076 588.776 456.076 588.776 449.344 582.042 449.344"></polygon>
                                <polygon id="Fill-475" fill="#0DE0EB" mask="url(#mask-5)" points="556.042 464.61 562.776 464.61 562.776 457.876 556.042 457.876"></polygon>
                                <polygon id="Fill-476" fill="#0DE0EB" mask="url(#mask-5)" points="564.71 464.61 571.442 464.61 571.442 457.876 564.71 457.876"></polygon>
                                <polygon id="Fill-477" fill="#0DE0EB" mask="url(#mask-5)" points="573.376 464.61 580.11 464.61 580.11 457.876 573.376 457.876"></polygon>
                                <polygon id="Fill-478" fill="#0DE0EB" mask="url(#mask-5)" points="582.042 464.61 588.776 464.61 588.776 457.876 582.042 457.876"></polygon>
                                <polygon id="Fill-479" fill="#0DE0EB" mask="url(#mask-5)" points="556.042 473.144 562.776 473.144 562.776 466.41 556.042 466.41"></polygon>
                                <polygon id="Fill-480" fill="#0DE0EB" mask="url(#mask-5)" points="564.71 473.144 571.442 473.144 571.442 466.41 564.71 466.41"></polygon>
                                <polygon id="Fill-481" fill="#0DE0EB" mask="url(#mask-5)" points="573.376 473.144 580.11 473.144 580.11 466.41 573.376 466.41"></polygon>
                                <polygon id="Fill-482" fill="#0DE0EB" mask="url(#mask-5)" points="582.042 473.144 588.776 473.144 588.776 466.41 582.042 466.41"></polygon>
                                <polygon id="Fill-483" fill="#0DE0EB" mask="url(#mask-5)" points="556.042 481.676 562.776 481.676 562.776 474.944 556.042 474.944"></polygon>
                                <polygon id="Fill-484" fill="#0DE0EB" mask="url(#mask-5)" points="564.71 481.676 571.442 481.676 571.442 474.944 564.71 474.944"></polygon>
                                <polygon id="Fill-485" fill="#0DE0EB" mask="url(#mask-5)" points="573.376 481.676 580.11 481.676 580.11 474.944 573.376 474.944"></polygon>
                                <polygon id="Fill-486" fill="#0DE0EB" mask="url(#mask-5)" points="582.042 481.676 588.776 481.676 588.776 474.944 582.042 474.944"></polygon>
                                <polygon id="Fill-487" fill="#0DE0EB" mask="url(#mask-5)" points="556.042 490.21 562.776 490.21 562.776 483.476 556.042 483.476"></polygon>
                                <polygon id="Fill-488" fill="#0DE0EB" mask="url(#mask-5)" points="564.71 490.21 571.442 490.21 571.442 483.476 564.71 483.476"></polygon>
                                <polygon id="Fill-489" fill="#0DE0EB" mask="url(#mask-5)" points="573.376 490.21 580.11 490.21 580.11 483.476 573.376 483.476"></polygon>
                                <polygon id="Fill-490" fill="#0DE0EB" mask="url(#mask-5)" points="582.042 490.21 588.776 490.21 588.776 483.476 582.042 483.476"></polygon>
                                <polygon id="Fill-491" fill="#0DE0EB" mask="url(#mask-5)" points="556.042 498.744 562.776 498.744 562.776 492.01 556.042 492.01"></polygon>
                                <polygon id="Fill-492" fill="#0DE0EB" mask="url(#mask-5)" points="564.71 498.744 571.442 498.744 571.442 492.01 564.71 492.01"></polygon>
                                <polygon id="Fill-493" fill="#0DE0EB" mask="url(#mask-5)" points="573.376 498.744 580.11 498.744 580.11 492.01 573.376 492.01"></polygon>
                                <polygon id="Fill-494" fill="#0DE0EB" mask="url(#mask-5)" points="582.042 498.744 588.776 498.744 588.776 492.01 582.042 492.01"></polygon>
                                <polygon id="Fill-495" fill="#0DE0EB" mask="url(#mask-5)" points="556.042 507.276 562.776 507.276 562.776 500.544 556.042 500.544"></polygon>
                                <polygon id="Fill-496" fill="#0DE0EB" mask="url(#mask-5)" points="564.71 507.276 571.442 507.276 571.442 500.544 564.71 500.544"></polygon>
                                <polygon id="Fill-497" fill="#0DE0EB" mask="url(#mask-5)" points="573.376 507.276 580.11 507.276 580.11 500.544 573.376 500.544"></polygon>
                                <polygon id="Fill-498" fill="#0DE0EB" mask="url(#mask-5)" points="582.042 507.276 588.776 507.276 588.776 500.544 582.042 500.544"></polygon>
                                <polygon id="Fill-499" fill="#0DE0EB" mask="url(#mask-5)" points="556.042 515.81 562.776 515.81 562.776 509.076 556.042 509.076"></polygon>
                                <polygon id="Fill-500" fill="#0DE0EB" mask="url(#mask-5)" points="564.71 515.81 571.442 515.81 571.442 509.076 564.71 509.076"></polygon>
                                <polygon id="Fill-501" fill="#0DE0EB" mask="url(#mask-5)" points="573.376 515.81 580.11 515.81 580.11 509.076 573.376 509.076"></polygon>
                                <polygon id="Fill-502" fill="#0DE0EB" mask="url(#mask-5)" points="582.042 515.81 588.776 515.81 588.776 509.076 582.042 509.076"></polygon>
                                <polygon id="Fill-503" fill="#0DE0EB" mask="url(#mask-5)" points="416.728 404.11 457.066 404.11 457.066 400.2 416.728 400.2"></polygon>
                                <polygon id="Fill-504" fill="#0DE0EB" mask="url(#mask-5)" points="416.728 432.71 457.066 432.71 457.066 428.8 416.728 428.8"></polygon>
                                <polygon id="Fill-505" fill="#0DE0EB" mask="url(#mask-5)" points="416.728 461.31 457.066 461.31 457.066 457.4 416.728 457.4"></polygon>
                                <polygon id="Fill-506" fill="#0DE0EB" mask="url(#mask-5)" points="416.728 489.91 457.066 489.91 457.066 486 416.728 486"></polygon>
                                <polygon id="Fill-507" fill="#0DE0EB" mask="url(#mask-5)" points="416.728 518.51 457.066 518.51 457.066 514.6 416.728 514.6"></polygon>
                                <polygon id="Fill-508" fill="#0DE0EB" mask="url(#mask-5)" points="416.728 413.776 434.334 413.776 434.334 409.866 416.728 409.866"></polygon>
                                <polygon id="Fill-509" fill="#0DE0EB" mask="url(#mask-5)" points="416.728 423.244 434.334 423.244 434.334 419.334 416.728 419.334"></polygon>
                                <polygon id="Fill-510" fill="#0DE0EB" mask="url(#mask-5)" points="779.35 504.678 790.334 504.678 790.334 501.454 779.35 501.454"></polygon>
                                <polygon id="Fill-511" fill="#0DE0EB" mask="url(#mask-5)" points="779.508 528.254 819.35 528.254 819.35 525.03 779.508 525.03"></polygon>
                                <polygon id="Fill-512" fill="#0DE0EB" mask="url(#mask-5)" points="765.266 536.762 819.35 536.762 819.35 533.54 765.266 533.54"></polygon>
                                <polygon id="Fill-513" fill="#0DE0EB" mask="url(#mask-5)" points="765.266 545.272 819.35 545.272 819.35 542.048 765.266 542.048"></polygon>
                                <polygon id="Fill-514" fill="#0DE0EB" mask="url(#mask-5)" points="765.266 553.78 819.35 553.78 819.35 550.556 765.266 550.556"></polygon>
                                <polygon id="Fill-515" fill="#0DE0EB" mask="url(#mask-5)" points="765.266 562.288 782.978 562.288 782.978 559.066 765.266 559.066"></polygon>
                                <polygon id="Fill-516" fill="#0DE0EB" mask="url(#mask-5)" points="779.35 512.646 803.4 512.646 803.4 509.424 779.35 509.424"></polygon>
                                <polygon id="Fill-517" fill="#0DE0EB" mask="url(#mask-5)" points="779.35 520.45 786.606 520.45 786.606 517.226 779.35 517.226"></polygon>
                                <polygon id="Fill-518" fill="#0DE0EB" mask="url(#mask-5)" points="307.534 456.244 321.4 456.244 321.4 442.376 307.534 442.376"></polygon>
                                <polygon id="Fill-519" fill="#0DE0EB" mask="url(#mask-5)" points="281.534 491.644 295.4 491.644 295.4 477.776 281.534 477.776"></polygon>
                                <polygon id="Fill-520" fill="#0DE0EB" mask="url(#mask-5)" points="281.534 532.844 295.4 532.844 295.4 518.976 281.534 518.976"></polygon>
                                <polygon id="Fill-521" fill="#0DE0EB" mask="url(#mask-5)" points="653.906 462.004 666.568 462.004 666.568 449.344 653.906 449.344"></polygon>
                                <polygon id="Fill-522" fill="#0DE0EB" mask="url(#mask-5)" points="630.168 483.796 642.828 483.796 642.828 471.134 630.168 471.134"></polygon>
                                <polygon id="Fill-523" fill="#0DE0EB" mask="url(#mask-5)" points="630.168 508.144 642.828 508.144 642.828 495.482 630.168 495.482"></polygon>
                                <polygon id="Fill-524" fill="#0DE0EB" mask="url(#mask-5)" points="653.906 540.466 666.568 540.466 666.568 527.804 653.906 527.804"></polygon>
                                <polygon id="Fill-525" fill="#0DE0EB" mask="url(#mask-5)" points="480.65 502.236 488.138 502.236 488.138 494.75 480.65 494.75"></polygon>
                                <polygon id="Fill-526" fill="#0DE0EB" mask="url(#mask-5)" points="525.95 520.71 534.55 520.71 534.55 512.11 525.95 512.11"></polygon>
                                <polygon id="Fill-527" fill="#0DE0EB" mask="url(#mask-5)" points="510.85 520.71 519.45 520.71 519.45 512.11 510.85 512.11"></polygon>
                                <polygon id="Fill-528" fill="#0DE0EB" mask="url(#mask-5)" points="495.75 520.71 504.35 520.71 504.35 512.11 495.75 512.11"></polygon>
                                <polygon id="Fill-529" fill="#0DE0EB" mask="url(#mask-5)" points="525.95 543.644 534.55 543.644 534.55 535.044 525.95 535.044"></polygon>
                                <polygon id="Fill-530" fill="#0DE0EB" mask="url(#mask-5)" points="495.75 543.644 504.35 543.644 504.35 535.044 495.75 535.044"></polygon>
                                <polygon id="Fill-531" fill="#0DE0EB" mask="url(#mask-5)" points="525.95 566.576 534.55 566.576 534.55 557.976 525.95 557.976"></polygon>
                                <polygon id="Fill-532" fill="#0DE0EB" mask="url(#mask-5)" points="510.85 566.576 519.45 566.576 519.45 557.976 510.85 557.976"></polygon>
                                <polygon id="Fill-533" fill="#0DE0EB" mask="url(#mask-5)" points="525.95 589.51 534.55 589.51 534.55 580.91 525.95 580.91"></polygon>
                                <polygon id="Fill-534" fill="#0DE0EB" mask="url(#mask-5)" points="495.75 589.51 504.35 589.51 504.35 580.91 495.75 580.91"></polygon>
                                <polygon id="Fill-535" fill="#0DE0EB" mask="url(#mask-5)" points="480.65 543.644 489.25 543.644 489.25 535.044 480.65 535.044"></polygon>
                                <polygon id="Fill-536" fill="#0DE0EB" mask="url(#mask-5)" points="480.65 566.576 489.25 566.576 489.25 557.976 480.65 557.976"></polygon>
                                <polygon id="Fill-537" fill="#0DE0EB" mask="url(#mask-5)" points="21.8 598.5 30.4 598.5 30.4 589.9 21.8 589.9"></polygon>
                                <polygon id="Fill-538" fill="#0DE0EB" mask="url(#mask-5)" points="36.9 598.5 45.5 598.5 45.5 589.9 36.9 589.9"></polygon>
                                <polygon id="Fill-539" fill="#0DE0EB" mask="url(#mask-5)" points="52 598.5 60.6 598.5 60.6 589.9 52 589.9"></polygon>
                                <polygon id="Fill-540" fill="#0DE0EB" mask="url(#mask-5)" points="6.7 618.3 15.3 618.3 15.3 609.7 6.7 609.7"></polygon>
                                <polygon id="Fill-541" fill="#0DE0EB" mask="url(#mask-5)" points="21.8 618.3 30.4 618.3 30.4 609.7 21.8 609.7"></polygon>
                                <polygon id="Fill-542" fill="#0DE0EB" mask="url(#mask-5)" points="52 618.3 60.6 618.3 60.6 609.7 52 609.7"></polygon>
                                <polygon id="Fill-543" fill="#0DE0EB" mask="url(#mask-5)" points="6.7 638.1 15.3 638.1 15.3 629.5 6.7 629.5"></polygon>
                                <polygon id="Fill-544" fill="#0DE0EB" mask="url(#mask-5)" points="36.9 638.1 45.5 638.1 45.5 629.5 36.9 629.5"></polygon>
                                <polygon id="Fill-545" fill="#0DE0EB" mask="url(#mask-5)" points="52 638.1 60.6 638.1 60.6 629.5 52 629.5"></polygon>
                            </g>
                            <g id="Shine" opacity="0.296365489" fill-opacity="1">
                                <use fill="black" filter="url(#filter-8)" xlink:href="#path-7"></use>
                            </g>
                        </g>
                    </g>
                </g>
            </g>
        </g>
    </g>
</svg>