<?xml version="1.0" encoding="UTF-8"?>
<svg width="1440px" height="517px" viewBox="0 0 1440 517" version="1.1" xmlns="http://www.w3.org/2000/svg" xmlns:xlink="http://www.w3.org/1999/xlink">
    <!-- Generator: Sketch 50 (54983) - http://www.bohemiancoding.com/sketch -->
    <title>Grid</title>
    <desc>Created with Sketch.</desc>
    <defs></defs>
    <g id="Web" stroke="none" stroke-width="1" fill="none" fill-rule="evenodd" opacity="0.497395833">
        <g id="[NS]Spain-2018-|-Web" transform="translate(0.000000, -1427.000000)" stroke="#F64DB8" stroke-width="1.16129032">
            <g id="Bg" transform="translate(0.000000, 526.000000)">
                <g id="Grid" transform="translate(0.000000, 901.000000)">
                    <path d="M20.3225806,1.46486486 C13.8193548,2.74324324 7.2,4.02162162 0.696774194,5.3" id="Shape"></path>
                    <path d="M58.4129032,1.46486486 C39.2516129,5.88108108 19.9741935,9.94864865 0.696774194,13.9" id="Shape"></path>
                    <path d="M96.3870968,1.46486486 C64.5677419,8.55405405 32.6322581,15.4108108 0.696774194,22.2675676" id="Shape"></path>
                    <path d="M134.477419,1.46486486 C90.5806452,12.6216216 45.2903226,21.9189189 0.812903226,32.2621622" id="Shape"></path>
                    <path d="M172.567742,1.46486486 C127.974194,12.6216216 83.2645161,23.4297297 38.5548387,34.2378378 C26.0129032,37.2594595 13.4709677,40.2810811 0.929032258,43.3027027" id="Shape"></path>
                    <path d="M210.658065,1.46486486 C140.516129,19.5945946 70.8387097,38.1891892 1.16129032,56.4351351" id="Shape"></path>
                    <path d="M248.632258,1.46486486 C216.696774,10.9945946 184.529032,19.4783784 152.36129,27.9621622 C119.845161,36.5621622 87.7935484,46.4405405 55.5096774,55.6216216 C37.2774194,60.7351351 19.0451613,65.8486486 0.812903226,70.9621622" id="Shape"></path>
                    <path d="M286.722581,1.46486486 C191.612903,31.2162162 96.3870968,60.2702703 1.27741935,88.7432432" id="Shape"></path>
                    <path d="M324.812903,1.46486486 C257.806452,23.0810811 191.612903,46.3243243 123.096774,68.4054054 C104.516129,74.2162162 88.2580645,80.027027 69.6774194,85.8378378 C58.0645161,90.4864865 47.6129032,93.972973 36,98.6216216 C24.3870968,102.108108 12.7741935,104.432432 1.16129032,108.616216" id="Shape"></path>
                    <path d="M362.903226,1.46486486 C315.987097,18.5486486 269.070968,35.6324324 222.270968,52.8324324 C175.23871,70.0324324 128.322581,87.4648649 81.2903226,104.781081 C54.5806452,114.659459 27.8709677,124.886486 0.929032258,134.532432" id="Shape"></path>
                    <path d="M400.877419,1.46486486 C373.935484,12.6216216 347.225806,24.2432432 320.516129,35.8648649 C308.903226,40.5135135 297.290323,44 285.677419,48.6486486 C282.193548,49.8108108 278.709677,49.8108108 275.225806,50.972973 C193.935484,88.1621622 112.645161,117.216216 31.3548387,153.243243 C20.9032258,156.72973 11.6129032,161.378378 0.929032258,163.702703" id="Shape"></path>
                    <path d="M438.967742,1.46486486 C370.451613,32.3783784 303.096774,63.7567568 234.580645,96.2972973 C232.258065,97.4594595 231.096774,96.2972973 228.774194,97.4594595 C152.129032,134.648649 76.6451613,166.027027 0.812903226,202.751351" id="Shape"></path>
                    <path d="M477.058065,1.46486486 C463.354839,11.4594595 447.096774,13.7837838 432,24.2432432 C427.354839,27.7297297 421.548387,30.0540541 416.903226,33.5405405 C406.451613,38.1891892 397.16129,42.8378378 386.709677,47.4864865 C380.903226,50.972973 376.258065,55.6216216 370.451613,57.9459459 C366.967742,59.1081081 364.645161,60.2702703 361.16129,62.5945946 C360,63.7567568 357.677419,62.5945946 356.516129,63.7567568 C330.967742,80.027027 306.580645,91.6486486 281.032258,104.432432 C185.806452,154.405405 94.0645161,200.891892 1.04516129,250.283784" id="Shape"></path>
                    <path d="M515.148387,1.46486486 C399.483871,73.0540541 286.83871,141.621622 166.064516,214.837838 C109.16129,248.540541 56.9032258,282.243243 0.812903226,315.016216" id="Shape"></path>
                    <path d="M553.122581,1.46486486 C466.83871,64.9189189 383.225806,125.351351 292.645161,191.594595 C225.290323,241.567568 167.225806,284.567568 99.8709677,333.378378 C83.6129032,345 70.8387097,355.459459 54.5806452,367.081081 C36,379.864865 18.5806452,391.486486 0.696774194,406.362162" id="Shape"></path>
                    <path d="M591.212903,1.46486486 C589.935484,2.16216216 588.774194,4.48648649 587.612903,5.64864865 C584.129032,7.97297297 580.645161,10.2972973 578.322581,12.6216216 C570.193548,21.9189189 562.064516,28.8918919 553.935484,37.027027 C473.806452,111.405405 396,179.972973 315.870968,255.513514 C308.903226,261.324324 300.774194,265.972973 293.806452,272.945946 C291.483871,276.432432 288,279.918919 284.516129,283.405405 C225.290323,336.864865 170.709677,386.837838 111.483871,439.135135 C98.7096774,451.918919 87.0967742,463.540541 74.3225806,476.324324 C68.516129,480.972973 62.7096774,484.459459 58.0645161,489.108108 C48.7741935,499.567568 39.483871,507.702703 29.3806452,516.302703" id="Shape"></path>
                    <path d="M629.303226,1.46486486 C493.548387,168.351351 355.354839,334.540541 219.483871,503.054054 C213.677419,505.378378 212.516129,512.351351 207.754839,516.418919" id="Shape"></path>
                    <path d="M667.393548,1.46486486 C617.806452,92.8108108 569.032258,182.297297 517.935484,276.432432 C513.290323,282.243243 509.806452,289.216216 507.483871,295.027027 C488.903226,328.72973 471.483871,360.108108 452.903226,393.810811 C432,435.648649 408.774194,475.162162 386.36129,516.418919" id="Shape"></path>
                    <path d="M705.367742,1.46486486 C658.451613,173 612,345 564.851613,516.418919" id="Shape"></path>
                    <path d="M743.458065,1.46486486 C743.225806,173 743.225806,345 743.458065,516.418919" id="Shape"></path>
                    <path d="M743.458065,1.46486486 C495.870968,1 248.516129,1 0.696774194,1.46486486" id="Shape"></path>
                    <path d="M743.458065,6.46216216 C495.870968,6.81081081 248.516129,6.81081081 0.696774194,6.46216216" id="Shape"></path>
                    <path d="M743.458065,11.9243243 C495.870968,11.4594595 248.516129,11.4594595 0.696774194,11.9243243" id="Shape"></path>
                    <path d="M743.458065,17.7351351 C495.870968,17.2702703 248.516129,17.2702703 0.696774194,17.7351351" id="Shape"></path>
                    <path d="M743.458065,24.0108108 C495.870968,24.2432432 248.516129,24.2432432 0.812903226,24.2432432" id="Shape"></path>
                    <path d="M743.458065,30.7513514 C495.870968,30.0540541 248.516129,30.0540541 0.812903226,30.5189189" id="Shape"></path>
                    <path d="M743.458065,38.1891892 C495.870968,38.1891892 248.516129,38.1891892 0.696774194,38.3054054" id="Shape"></path>
                    <path d="M743.458065,46.3243243 C495.870968,46.3243243 248.516129,46.3243243 0.812903226,46.4405405" id="Shape"></path>
                    <path d="M743.458065,55.1567568 C495.870968,53.2972973 248.516129,54.4594595 0.812903226,54.8081081" id="Shape"></path>
                    <path d="M743.458065,64.9189189 C495.870968,64.9189189 248.516129,64.9189189 1.16129032,65.0351351" id="Shape"></path>
                    <path d="M743.458065,75.727027 C495.870968,75.3783784 248.516129,75.3783784 0.812903226,75.6108108" id="Shape"></path>
                    <path d="M743.458065,87.6972973 C495.870968,85.8378378 248.516129,87 0.812903226,87.3486486" id="Shape"></path>
                    <path d="M743.458065,101.178378 C495.870968,100.945946 248.516129,100.945946 0.812903226,101.178378" id="Shape"></path>
                    <path d="M743.458065,116.286486 C495.870968,116.054054 248.516129,116.054054 1.16129032,116.286486" id="Shape"></path>
                    <path d="M743.458065,133.486486 C495.870968,133.486486 248.516129,133.486486 1.16129032,133.602703" id="Shape"></path>
                    <path d="M743.458065,153.127027 C495.870968,153.243243 248.516129,153.243243 1.16129032,153.243243" id="Shape"></path>
                    <path d="M743.458065,175.789189 C495.870968,175.324324 248.516129,175.324324 1.04516129,175.672973" id="Shape"></path>
                    <path d="M743.458065,202.402703 C495.870968,202.054054 248.516129,202.054054 0.812903226,202.286486" id="Shape"></path>
                    <path d="M743.458065,233.897297 C495.870968,233.432432 248.516129,233.432432 0.812903226,233.781081" id="Shape"></path>
                    <path d="M743.458065,271.9 C495.870968,271.783784 248.516129,271.783784 1.16129032,271.9" id="Shape"></path>
                    <path d="M743.458065,318.386486 C495.870968,318.27027 248.516129,318.27027 1.16129032,318.386486" id="Shape"></path>
                    <path d="M743.458065,376.959459 C495.870968,376.378378 248.516129,376.378378 0.696774194,376.727027" id="Shape"></path>
                    <path d="M743.458065,452.616216 C495.870968,450.756757 248.516129,451.918919 0.812903226,452.267568" id="Shape"></path>
                    <path d="M1428.61935,1.46486486 C1432.21935,2.27837838 1435.93548,3.09189189 1439.53548,3.90540541" id="Shape"></path>
                    <path d="M1390.52903,1.46486486 C1406.7871,5.3 1423.16129,8.78648649 1439.53548,12.272973" id="Shape"></path>
                    <path d="M1352.43871,1.46486486 C1381.47097,8.43783784 1410.3871,15.2945946 1439.41935,22.0351351" id="Shape"></path>
                    <path d="M1314.46452,1.46486486 C1355.22581,12.6216216 1397.03226,20.7567568 1439.30323,32.4945946" id="Shape"></path>
                    <path d="M1276.37419,1.46486486 C1330.83871,16.1081081 1384.25806,30.0540541 1439.30323,44.2324324" id="Shape"></path>
                    <path d="M1238.28387,1.46486486 C1264.29677,8.9027027 1290.19355,16.2243243 1316.20645,23.5459459 C1342.45161,30.8675676 1368.8129,38.1891892 1395.05806,45.5108108 C1409.80645,49.5783784 1424.67097,53.7621622 1439.41935,57.8297297" id="Shape"></path>
                    <path d="M1200.19355,1.46486486 C1231.31613,10.9945946 1262.43871,20.5243243 1293.56129,30.0540541 C1324.68387,39.5837838 1355.69032,49.1135135 1386.8129,58.6432432 C1404.34839,63.9891892 1421.88387,69.4513514 1439.41935,74.7972973" id="Shape"></path>
                    <path d="M1162.10323,1.46486486 C1220.51613,23.0810811 1280.90323,39.3513514 1340.12903,60.2702703 C1372.64516,71.8918919 1405.16129,83.5135135 1438.95484,93.2756757" id="Shape"></path>
                    <path d="M1124.12903,1.46486486 C1165.23871,16.3405405 1206.34839,31.3324324 1247.45806,46.4405405 C1288.45161,61.5486486 1329.44516,76.6567568 1370.55484,91.8810811 C1393.54839,100.364865 1416.42581,108.848649 1439.41935,117.332432" id="Shape"></path>
                    <path d="M1086.03871,1.46486486 C1203.09677,49.8108108 1321.54839,97.4594595 1438.95484,144.875676" id="Shape"></path>
                    <path d="M1047.94839,1.46486486 C1093.93548,21.9189189 1138.06452,44 1185.67742,63.7567568 C1190.32258,64.9189189 1193.80645,68.4054054 1197.29032,70.7297297 C1226.32258,83.5135135 1254.19355,95.1351351 1282.06452,109.081081 C1284.3871,110.243243 1285.54839,109.081081 1287.87097,110.243243 C1338.96774,133.486486 1387.74194,157.891892 1439.07097,180.437838" id="Shape"></path>
                    <path d="M1009.85806,1.46486486 C1098.58065,47.4864865 1186.83871,92.8108108 1276.25806,141.621622 C1291.35484,148.594595 1305.29032,154.405405 1320.3871,162.540541 C1329.67742,168.351351 1338.96774,171.837838 1348.25806,178.810811 C1352.90323,182.297297 1358.70968,183.459459 1363.35484,185.783784 C1381.93548,196.243243 1400.51613,207.864865 1420.25806,216 C1427.22581,218.324324 1431.87097,222.972973 1439.41935,226.575676" id="Shape"></path>
                    <path d="M971.883871,1.46486486 C1002.19355,20.2918919 1032.50323,38.8864865 1063.04516,57.4810811 C1093.5871,76.0756757 1124.24516,94.5540541 1154.90323,112.916216 C1185.79355,131.510811 1216.68387,149.989189 1246.76129,169.862162 C1261.27742,179.391892 1277.1871,186.597297 1291.81935,196.127027 C1299.13548,200.891892 1306.8,204.959459 1314.23226,209.608108 C1317.83226,211.816216 1320.96774,214.024324 1323.9871,216.92973 C1327.00645,219.718919 1331.1871,221.345946 1334.7871,223.205405 C1351.04516,231.689189 1366.37419,241.683784 1382.05161,251.32973 C1397.26452,260.743243 1412.59355,270.156757 1427.92258,279.57027 C1431.75484,281.894595 1435.5871,284.218919 1439.41935,286.659459" id="Shape"></path>
                    <path d="M933.793548,1.46486486 C1010.32258,57.9459459 1083.48387,111.405405 1164.77419,169.513514 C1196.12903,192.756757 1224,213.675676 1255.35484,235.756757 C1266.96774,243.891892 1276.25806,252.027027 1287.87097,260.162162 C1341.29032,297.351351 1388.90323,333.378378 1439.07097,371.032432" id="Shape"></path>
                    <path d="M895.703226,1.46486486 C1018.45161,113.72973 1138.06452,224.135135 1263.48387,339.189189 C1269.29032,343.837838 1275.09677,348.486486 1280.90323,353.135135 C1285.54839,358.945946 1291.35484,363.594595 1297.16129,368.243243 C1298.32258,369.405405 1299.48387,371.72973 1300.64516,372.891892 C1304.12903,375.216216 1306.45161,377.540541 1309.93548,379.864865 C1335.48387,404.27027 1362.19355,426.351351 1387.74194,450.756757 C1404,468.189189 1421.41935,484.459459 1439.07097,499.218919" id="Shape"></path>
                    <path d="M857.612903,1.46486486 C858.193548,2.16216216 858.193548,3.32432432 859.354839,4.48648649 C868.645161,13.7837838 874.451613,23.0810811 883.741935,32.3783784 C888.387097,38.1891892 891.870968,44 896.516129,49.8108108 C927.870968,87 955.741935,121.864865 985.935484,159.054054 C990.580645,164.864865 996.387097,169.513514 1001.03226,175.324324 C1054.45161,243.891892 1105.54839,303.162162 1160.12903,371.72973 C1200.77419,421.702703 1239.09677,468.189189 1279.16129,516.418919" id="Shape"></path>
                    <path d="M819.63871,1.46486486 C832.645161,26.5675676 846.580645,49.8108108 860.516129,75.3783784 C872.129032,98.6216216 883.741935,118.378378 896.516129,141.621622 C947.612903,236.918919 997.548387,326.405405 1049.80645,421.702703 C1067.22581,454.243243 1083.48387,484.459459 1100.67097,516.418919" id="Shape"></path>
                    <path d="M781.548387,1.46486486 C828,173 876.774194,345 922.064516,516.418919" id="Shape"></path>
                    <path d="M743.458065,1.46486486 C975.483871,1 1206.58065,1 1439.30323,1.46486486" id="Shape"></path>
                    <path d="M743.458065,6.46216216 C975.483871,6.81081081 1207.74194,6.81081081 1439.53548,6.81081081" id="Shape"></path>
                    <path d="M743.458065,11.9243243 C975.483871,11.4594595 1207.74194,11.4594595 1439.53548,11.8081081" id="Shape"></path>
                    <path d="M743.458065,17.7351351 C975.483871,17.2702703 1206.58065,17.2702703 1439.30323,17.6189189" id="Shape"></path>
                    <path d="M743.458065,24.0108108 C975.483871,24.2432432 1206.58065,24.2432432 1439.30323,24.2432432" id="Shape"></path>
                    <path d="M743.458065,30.7513514 C975.483871,30.0540541 1207.74194,30.0540541 1439.41935,30.4027027" id="Shape"></path>
                    <path d="M743.458065,38.1891892 C975.483871,38.1891892 1206.58065,38.1891892 1439.30323,38.3054054" id="Shape"></path>
                    <path d="M743.458065,46.3243243 C975.483871,46.3243243 1207.74194,46.3243243 1439.53548,46.4405405" id="Shape"></path>
                    <path d="M743.458065,55.1567568 C975.483871,53.2972973 1206.58065,54.4594595 1439.1871,54.9243243" id="Shape"></path>
                    <path d="M743.458065,64.9189189 C975.483871,64.9189189 1206.58065,64.9189189 1439.1871,65.0351351" id="Shape"></path>
                    <path d="M743.458065,75.727027 C975.483871,75.3783784 1206.58065,75.3783784 1439.1871,75.6108108" id="Shape"></path>
                    <path d="M743.458065,87.6972973 C975.483871,85.8378378 1206.58065,87 1439.30323,87.4648649" id="Shape"></path>
                    <path d="M743.458065,101.178378 C975.483871,100.945946 1206.58065,100.945946 1439.1871,101.178378" id="Shape"></path>
                    <path d="M743.458065,116.286486 C975.483871,116.054054 1207.74194,116.054054 1439.53548,116.286486" id="Shape"></path>
                    <path d="M743.458065,133.486486 C975.483871,133.486486 1206.58065,133.486486 1439.1871,133.602703" id="Shape"></path>
                    <path d="M743.458065,153.127027 C975.483871,153.243243 1206.58065,153.243243 1438.95484,153.243243" id="Shape"></path>
                    <path d="M743.458065,175.789189 C975.483871,175.324324 1206.58065,175.324324 1439.1871,175.556757" id="Shape"></path>
                    <path d="M743.458065,202.402703 C975.483871,202.054054 1206.58065,202.054054 1439.30323,202.286486" id="Shape"></path>
                    <path d="M743.458065,233.897297 C975.483871,233.432432 1206.58065,233.432432 1439.30323,233.781081" id="Shape"></path>
                    <path d="M743.458065,271.9 C975.483871,271.783784 1207.74194,271.783784 1439.53548,271.9" id="Shape"></path>
                    <path d="M743.458065,318.386486 C975.483871,318.27027 1206.58065,318.27027 1439.30323,318.386486" id="Shape"></path>
                    <path d="M743.458065,376.959459 C975.483871,376.378378 1207.74194,376.378378 1439.53548,376.727027" id="Shape"></path>
                    <path d="M743.458065,452.616216 C975.483871,450.756757 1206.58065,451.918919 1439.1871,452.383784" id="Shape"></path>
                </g>
            </g>
        </g>
    </g>
</svg>