<?xml version="1.0" standalone="no"?>
<!DOCTYPE svg PUBLIC "-//W3C//DTD SVG 20010904//EN"
 "http://www.w3.org/TR/2001/REC-SVG-20010904/DTD/svg10.dtd">
<svg version="1.0" xmlns="http://www.w3.org/2000/svg"
 width="2061.000000pt" height="2061.000000pt" viewBox="0 0 2061.000000 2061.000000"
 preserveAspectRatio="xMidYMid meet">
<metadata>
Created by potrace 1.14, written by Peter Selinger 2001-2017
</metadata>
<g transform="translate(0.000000,2061.000000) scale(0.100000,-0.100000)"
fill="#000000" stroke="none">
<path d="M5610 16594 c-21 -88 -44 -114 -123 -140 -37 -13 -70 -23 -73 -23 -3
1 -8 -2 -11 -4 -3 -3 28 -15 69 -27 40 -12 81 -29 90 -37 9 -8 29 -52 44 -96
l27 -81 21 69 c12 39 27 79 33 91 12 21 61 43 143 65 l45 11 -82 27 c-46 15
-90 36 -101 49 -10 12 -27 51 -37 87 -9 36 -21 65 -25 65 -4 0 -13 -25 -20
-56z"/>
<path d="M731 16458 c-26 -104 -43 -121 -154 -153 -54 -16 -64 -25 -34 -32
127 -27 151 -46 179 -139 13 -40 26 -74 29 -74 3 0 14 28 24 63 29 95 37 103
132 134 l84 27 -82 27 c-95 30 -110 46 -134 136 -10 35 -20 63 -24 63 -4 0
-13 -24 -20 -52z"/>
<path d="M20060 16275 c-14 -7 -164 -156 -335 -331 -576 -589 -565 -579 -615
-593 -26 -7 -144 -13 -285 -16 -307 -6 -533 -22 -690 -50 -224 -40 -470 -106
-610 -165 -11 -5 -36 -14 -54 -22 -56 -21 -331 -158 -376 -186 -22 -14 -65
-41 -95 -60 -83 -53 -117 -94 -147 -182 -99 -281 180 -806 654 -1232 63 -57
253 -198 329 -245 212 -131 441 -225 659 -272 138 -30 197 -36 360 -36 l151 0
49 35 c35 26 58 54 82 100 67 127 141 334 189 525 17 68 49 249 58 325 24 209
25 566 2 755 -2 17 -7 57 -11 90 -3 33 -8 71 -10 85 -8 50 -36 216 -41 240
-21 101 -24 151 -9 185 7 18 121 176 252 351 438 584 534 716 521 714 -2 -1
-14 -7 -28 -15z"/>
<path d="M8350 14644 c-23 -94 -43 -115 -139 -144 l-84 -26 82 -24 c97 -27
110 -41 141 -143 l22 -72 22 71 c30 102 39 111 135 144 l83 28 -55 16 c-30 9
-61 16 -69 16 -30 0 -73 58 -92 124 -10 36 -22 66 -26 66 -4 0 -13 -25 -20
-56z"/>
<path d="M16393 14336 c-72 -77 -170 -188 -216 -246 -409 -512 -743 -1212
-1016 -2132 -86 -287 -100 -355 -97 -453 2 -49 10 -109 19 -132 l15 -43 -47
-37 c-64 -51 -74 -62 -259 -288 -10 -11 -44 -56 -77 -100 -33 -44 -62 -82 -65
-85 -3 -3 -58 -75 -122 -160 -65 -85 -128 -167 -140 -181 -13 -15 -43 -51 -68
-80 -166 -199 -315 -303 -510 -355 -73 -20 -104 -23 -225 -20 -204 4 -364 53
-561 171 -117 71 -159 102 -320 236 -890 746 -1514 1097 -2089 1176 -109 15
-382 8 -475 -11 -440 -93 -804 -425 -945 -865 -22 -68 -30 -103 -50 -206 -11
-53 -13 -248 -4 -313 20 -144 37 -210 83 -323 91 -227 229 -420 466 -651 157
-154 136 -135 439 -393 370 -314 517 -471 602 -640 95 -190 89 -315 -25 -545
-120 -242 -321 -442 -476 -475 -98 -21 -242 4 -374 65 -37 16 -69 30 -72 30
-18 0 -449 226 -734 384 -540 301 -806 428 -1145 545 -98 34 -277 86 -330 95
-11 2 -38 9 -60 15 -74 19 -278 57 -395 72 -220 28 -524 30 -664 3 -12 -2 -32
-6 -46 -9 -14 -2 -41 -7 -60 -10 -151 -25 -385 -106 -558 -194 -54 -28 -103
-51 -108 -51 -5 0 -9 227 -9 545 l0 545 254 -1 c140 0 257 3 261 8 4 4 29 49
56 98 26 50 58 108 71 130 12 22 26 47 30 55 4 8 59 112 123 230 64 118 138
254 163 301 l47 86 -603 -2 c-331 -1 -615 -6 -632 -9 -16 -4 -50 -12 -75 -17
-270 -60 -528 -257 -648 -495 -49 -95 -75 -186 -87 -294 -2 -14 -3 -518 -4
-1121 l-1 -1095 -151 -180 c-83 -98 -161 -190 -173 -204 -12 -14 -53 -63 -91
-110 -38 -47 -72 -87 -75 -90 -8 -7 -237 -292 -289 -359 -295 -383 -470 -641
-577 -853 -26 -52 -32 -73 -23 -78 12 -8 38 10 389 274 572 431 767 586 905
718 44 42 81 75 82 74 2 -1 3 -423 3 -937 1 -933 2 -970 37 -1084 30 -100 115
-255 172 -314 9 -10 35 -38 58 -64 90 -98 239 -192 373 -235 151 -49 208 -52
831 -50 l576 3 -74 135 c-41 74 -94 171 -117 215 -24 44 -68 125 -98 180 -30
55 -72 132 -93 170 -21 39 -53 98 -72 132 l-35 63 -256 2 -257 3 0 1380 0
1380 25 26 c49 50 288 219 395 280 253 143 431 199 657 204 275 6 596 -97 858
-277 34 -24 72 -50 84 -58 12 -8 42 -31 67 -50 24 -19 50 -39 58 -45 34 -26
408 -402 501 -505 104 -115 420 -435 495 -500 59 -52 185 -152 225 -180 19
-13 37 -27 40 -30 19 -22 207 -133 315 -186 173 -85 299 -126 520 -169 160
-31 427 -23 614 19 567 128 1058 536 1361 1131 182 358 262 667 255 995 -3
143 -6 181 -20 250 -3 14 -8 39 -11 55 -22 123 -108 351 -186 490 -187 333
-419 568 -836 844 -120 80 -299 191 -308 191 -3 0 -17 8 -32 19 -15 10 -90 56
-167 101 -417 248 -578 395 -611 560 -11 51 -7 181 6 231 24 88 83 191 146
253 71 71 207 146 293 161 14 2 49 9 76 14 28 5 104 9 170 9 460 0 1101 -285
1745 -776 153 -117 239 -185 239 -192 1 -3 -249 -5 -554 -4 -305 0 -555 -1
-555 -4 0 -2 24 -50 54 -105 29 -56 73 -138 96 -182 23 -44 61 -114 83 -155
57 -105 128 -237 192 -360 l55 -105 255 3 255 3 1 -63 c0 -66 0 -4569 -1
-4625 l0 -33 -257 -2 -256 -3 -22 -40 c-12 -22 -43 -80 -70 -130 -26 -49 -60
-112 -75 -140 -15 -27 -46 -84 -68 -125 -57 -107 -106 -198 -178 -332 -35 -64
-64 -120 -64 -123 0 -3 258 -5 574 -5 610 0 667 4 809 51 138 46 292 139 398
241 68 66 141 158 161 205 7 15 16 30 19 33 15 11 69 196 76 258 4 37 7 1158
7 2492 0 2268 -1 2430 -17 2500 -10 41 -29 102 -42 134 -13 33 -23 61 -22 63
2 1 34 -9 73 -23 78 -29 244 -70 319 -80 28 -3 53 -8 57 -10 11 -7 286 -6 333
0 103 14 183 28 211 37 17 5 41 11 52 14 93 17 345 123 487 202 234 132 499
359 723 620 137 159 148 176 188 281 8 20 16 22 109 26 111 5 162 19 302 87
531 255 781 385 1048 547 129 78 403 258 415 272 3 3 21 17 40 30 87 60 247
189 384 310 203 178 637 670 615 697 -7 8 -19 9 -37 3 -79 -26 -304 -39 -422
-25 -144 17 -303 58 -442 114 -99 39 -287 135 -343 173 -5 4 -48 33 -95 64
-47 31 -87 60 -90 63 -3 4 -14 14 -26 22 -35 23 -124 100 -197 169 -398 374
-650 826 -676 1211 l-6 96 -132 -141z m117 -1551 c235 -32 445 -185 550 -402
105 -217 75 -459 -77 -617 -256 -267 -746 -197 -984 142 -35 50 -83 145 -94
187 -5 17 -10 37 -12 45 -3 8 -6 58 -9 110 -3 76 1 110 17 164 63 209 222 344
444 376 50 7 80 6 165 -5z"/>
<path d="M15090 13005 c-102 -25 -234 -85 -680 -306 -172 -86 -265 -138 -287
-160 -37 -39 -117 -179 -248 -434 -125 -243 -170 -361 -195 -510 -15 -86 -24
-255 -14 -254 5 0 42 37 81 82 40 45 92 103 115 128 24 25 78 85 122 133 43
48 91 93 106 101 15 8 74 17 131 20 57 4 120 8 139 10 19 2 109 5 200 6 171 1
210 9 225 46 4 10 31 88 60 173 29 85 92 268 140 405 48 138 100 286 115 331
16 44 40 109 55 145 40 95 45 109 37 108 -4 0 -50 -11 -102 -24z"/>
<path d="M11910 12512 c-12 -40 -30 -82 -39 -94 -10 -12 -53 -32 -99 -47 l-81
-27 80 -24 c94 -28 109 -42 135 -135 10 -36 22 -65 25 -65 4 0 15 30 25 66 11
36 28 76 40 89 12 13 53 32 98 45 l78 24 -82 26 c-45 15 -88 34 -95 41 -7 8
-24 50 -38 94 l-25 80 -22 -73z"/>
<path d="M19712 11827 c-7 -15 -15 -40 -18 -55 -13 -51 -34 -82 -72 -101 -20
-10 -41 -19 -47 -20 -29 -4 -86 -23 -82 -27 3 -3 38 -15 78 -27 85 -26 107
-50 129 -141 7 -31 16 -56 20 -56 3 0 17 34 30 76 14 45 32 82 44 90 12 8 53
24 94 36 l72 22 -82 27 c-93 30 -103 40 -134 138 -21 65 -21 66 -32 38z"/>
<path d="M17230 10918 c-883 -450 -849 -431 -855 -460 -7 -31 6 -133 37 -288
39 -198 23 -335 -55 -458 -18 -28 -99 -119 -181 -202 -90 -93 -145 -155 -139
-161 8 -8 29 -6 133 16 48 9 186 58 273 96 180 78 373 196 567 348 165 128
192 157 217 231 257 753 280 829 282 921 2 68 -1 89 -11 88 -7 0 -128 -59
-268 -131z"/>
<path d="M3099 10526 c-2 -2 -98 -7 -214 -10 -115 -4 -235 -9 -265 -11 -30 -2
-89 -6 -130 -9 -41 -3 -100 -8 -130 -11 -87 -9 -233 -26 -260 -30 -14 -2 -45
-7 -70 -10 -199 -28 -396 -89 -470 -147 -182 -142 61 -342 705 -580 141 -52
498 -170 645 -213 25 -7 115 -34 201 -59 85 -25 180 -52 210 -60 30 -8 79 -21
109 -30 243 -65 408 -108 704 -182 226 -56 283 -67 265 -50 -2 2 -157 43 -344
90 -295 75 -633 163 -745 196 -19 5 -73 21 -120 34 -1313 374 -1878 676 -1597
853 39 25 145 68 189 77 13 3 50 12 84 20 33 8 83 18 110 22 27 3 51 7 54 9 3
2 34 6 70 10 36 4 72 9 81 10 9 2 52 6 95 10 43 4 87 9 97 11 9 1 65 6 125 9
59 4 123 8 142 10 285 27 1644 27 2305 0 50 -2 169 -6 265 -10 96 -3 213 -8
260 -10 47 -3 137 -7 200 -10 173 -8 295 -14 395 -20 50 -3 140 -7 200 -10 61
-3 137 -7 170 -10 33 -2 114 -7 180 -10 66 -4 136 -8 155 -10 19 -2 87 -6 150
-10 63 -3 141 -8 172 -11 32 -2 99 -6 150 -9 51 -3 122 -7 158 -10 161 -12
210 -15 285 -20 44 -3 105 -7 135 -10 72 -6 189 -15 270 -20 185 -12 256 -18
262 -21 4 -3 9 0 12 5 9 14 -16 19 -119 26 -140 9 -225 15 -285 20 -90 8 -237
18 -570 40 -77 5 -210 14 -300 20 -60 4 -154 10 -305 19 -33 2 -109 7 -170 11
-60 3 -139 8 -175 10 -36 2 -114 7 -175 10 -60 3 -141 8 -180 10 -38 2 -128 6
-200 9 -71 4 -168 8 -215 11 -152 9 -442 21 -745 31 -110 3 -238 8 -285 10
-116 5 -1536 14 -1541 10z"/>
<path d="M8612 10317 c-28 -30 -28 -68 1 -95 30 -28 68 -28 95 1 28 30 28 68
-1 95 -30 28 -68 28 -95 -1z"/>
<path d="M13770 9390 c0 -5 3 -10 8 -10 4 0 59 -12 122 -26 63 -14 122 -27
130 -29 58 -12 184 -40 360 -79 113 -26 214 -48 225 -50 11 -2 50 -11 88 -20
103 -24 127 -27 127 -16 0 5 -2 10 -5 10 -3 0 -47 9 -98 21 -50 11 -101 22
-112 25 -11 2 -132 29 -270 60 -137 31 -260 58 -271 60 -12 2 -81 18 -154 34
-148 34 -150 34 -150 20z"/>
<path d="M15555 9015 c-14 -13 -25 -33 -25 -45 0 -28 43 -70 73 -70 30 0 67
39 67 71 0 31 -38 69 -69 69 -12 0 -33 -11 -46 -25z"/>
<path d="M6010 8762 c0 -8 176 -51 275 -68 17 -3 46 -9 65 -14 19 -5 46 -11
60 -14 14 -2 126 -25 250 -51 124 -26 268 -55 321 -64 53 -10 100 -20 105 -23
5 -3 32 -9 59 -12 28 -4 78 -13 113 -21 34 -8 77 -17 95 -20 17 -3 178 -34
357 -70 179 -35 339 -66 355 -69 17 -3 44 -8 60 -11 127 -24 396 -75 420 -79
37 -7 71 -14 108 -22 16 -3 38 -7 50 -9 12 -2 47 -8 77 -13 30 -6 71 -13 90
-17 19 -3 80 -14 135 -25 120 -22 259 -48 300 -55 17 -3 41 -7 55 -10 14 -3
63 -12 110 -20 47 -8 96 -17 110 -20 43 -9 194 -36 221 -40 14 -2 63 -11 109
-19 96 -19 100 -19 100 -7 0 5 -19 12 -42 16 -24 4 -52 9 -63 11 -60 12 -170
32 -220 40 -16 3 -64 11 -105 19 -41 8 -91 17 -110 20 -19 3 -55 9 -80 15 -43
9 -175 33 -250 45 -43 7 -176 32 -210 40 -14 3 -43 8 -65 11 -22 3 -48 7 -57
10 -10 3 -29 7 -43 10 -79 13 -166 29 -215 39 -14 3 -43 8 -65 11 -22 3 -42 7
-45 9 -3 2 -57 13 -120 24 -118 22 -146 27 -190 36 -14 2 -41 7 -60 10 -19 3
-42 8 -50 10 -8 2 -28 7 -45 9 -29 5 -68 13 -390 76 -88 18 -171 34 -185 36
-14 3 -100 20 -192 39 -92 19 -180 37 -195 40 -33 6 -54 10 -156 31 -42 8 -90
18 -105 20 -15 3 -121 25 -237 50 -115 24 -223 47 -240 50 -16 3 -79 16 -139
30 -121 27 -126 27 -126 16z"/>
<path d="M16700 8761 c0 -7 25 -16 105 -37 6 -1 37 -9 70 -17 57 -14 210 -54
450 -117 345 -91 679 -185 835 -235 41 -13 127 -39 190 -59 425 -131 754 -254
1005 -376 380 -184 487 -318 341 -428 -40 -30 -172 -85 -228 -96 -13 -2 -41
-9 -63 -14 -67 -18 -259 -48 -360 -57 -59 -4 -151 -12 -250 -20 -329 -27
-1680 -27 -2050 0 -33 2 -136 7 -230 11 -93 3 -195 8 -225 9 -388 19 -623 32
-730 40 -30 2 -102 7 -160 10 -58 3 -132 8 -165 10 -33 2 -105 7 -160 10 -55
3 -125 8 -155 10 -51 5 -99 8 -275 20 -38 3 -95 7 -125 10 -30 2 -95 7 -145
10 -171 12 -354 26 -376 30 -9 2 -22 -1 -30 -6 -8 -5 -12 -9 -9 -10 3 0 12 -2
20 -3 8 -2 60 -6 115 -10 55 -4 120 -9 145 -11 25 -3 83 -7 130 -10 47 -3 112
-8 145 -11 61 -4 150 -11 260 -19 125 -9 454 -30 620 -40 55 -3 132 -8 170
-10 152 -10 319 -19 535 -30 69 -3 159 -8 200 -10 41 -3 136 -7 210 -10 74 -3
178 -7 230 -10 567 -27 1719 -27 2065 0 181 14 222 17 235 20 8 1 44 6 80 9
276 29 515 98 602 175 172 151 -52 344 -692 595 -63 24 -127 48 -143 51 -15 4
-30 11 -33 16 -3 5 -14 9 -25 9 -10 0 -27 4 -37 10 -22 13 -366 125 -607 199
-201 61 -648 187 -840 236 -49 13 -144 38 -210 55 -470 123 -435 115 -435 101z"/>
<path d="M14566 8452 c-32 -94 -42 -104 -138 -133 -38 -11 -68 -21 -68 -23 0
-2 33 -14 73 -26 39 -12 80 -29 89 -37 14 -12 38 -65 43 -93 0 -3 7 -23 15
-45 l13 -40 17 61 c32 112 35 116 134 150 l88 30 -77 23 c-94 27 -112 45 -140
142 l-22 73 -27 -82z"/>
<path d="M18184 8150 c-4 -14 -9 -27 -9 -30 -26 -108 -45 -130 -139 -159 -42
-13 -74 -27 -71 -31 2 -4 22 -10 42 -13 21 -4 58 -17 83 -29 41 -21 47 -29 70
-95 14 -39 28 -74 31 -78 4 -3 15 24 25 61 10 37 27 77 38 89 12 13 52 31 95
43 40 12 75 23 77 25 2 2 -30 14 -72 26 -46 13 -85 31 -97 45 -11 13 -30 56
-42 97 -20 65 -23 71 -31 49z"/>
<path d="M10262 7987 c-29 -30 -28 -62 3 -92 30 -31 65 -32 93 -2 29 30 28 62
-3 92 -30 31 -65 32 -93 2z"/>
</g>
</svg>
