<svg width="1986" height="468" viewBox="0 0 1986 468" fill="none" xmlns="http://www.w3.org/2000/svg">
<g clip-path="url(#clip0)">
<path fill-rule="evenodd" clip-rule="evenodd" d="M232.477 6.03544e-05C361.501 -0.83194 467.138 103.47 467.97 232.492C468.802 361.514 364.528 467.168 235.503 468C106.479 468.832 0.842527 364.541 0.000182267 235.508C-0.821364 106.486 103.463 0.83206 232.477 6.03544e-05ZM184.443 410.103L187.375 403.406C192.429 391.862 194.946 379.6 194.863 366.943C194.551 317.429 154.014 277.41 104.503 277.732C91.1814 277.815 78.3591 280.769 66.3998 286.499L59.8067 289.661L62.3025 296.525C81.3541 349.003 124.418 390.624 177.496 407.846L184.443 410.103ZM328.473 390.395L328.952 386.381C330.043 377.198 330.574 367.848 330.511 358.592C330.137 299.863 306.905 244.795 265.11 203.528C223.326 162.271 167.96 139.755 109.224 140.13C99.4593 140.192 89.5695 140.91 79.8254 142.272L75.8216 142.834L73.877 146.37C60.1187 171.392 52.5896 198.598 51.5184 227.23L51.0816 238.774L62.0633 235.196C75.6448 230.766 89.8191 228.478 104.181 228.384C180.896 227.885 243.708 289.91 244.207 366.631C244.291 379.974 242.471 393.214 238.8 405.974L235.607 417.071L247.119 416.25C274.813 414.263 300.998 406.245 324.979 392.413L328.473 390.395ZM377.225 322.213L380.47 345.478L392.19 325.114C408.246 297.211 416.628 265.366 416.42 233.022C415.775 132.371 333.371 51.0225 232.727 51.6673C199.906 51.8857 167.783 60.9129 139.798 77.7817L119.676 89.9081L143.001 92.6849C202.569 99.7777 256.78 125.954 299.781 168.407C342.252 210.33 369.03 263.515 377.225 322.213Z" fill="#F51317"/>
<path fill-rule="evenodd" clip-rule="evenodd" d="M809.962 85.4364H692.876V408.117H824.261C878.191 408.117 922.441 368.472 922.441 317.304C922.441 276.276 894.778 243.548 857.902 237.557C885.554 230.184 906.758 200.679 906.758 168.876C906.758 123.24 863.892 85.4364 809.962 85.4364ZM852.37 177.164C852.37 200.679 833.006 219.118 808.578 219.118H746.806V137.062H808.578C832.549 137.062 852.37 154.576 852.37 177.164ZM867.574 309.931C867.574 335.744 847.295 356.492 820.558 356.492H746.806V262.912H821.016C846.827 262.912 867.574 283.66 867.574 309.931Z" fill="#F51317"/>
<path fill-rule="evenodd" clip-rule="evenodd" d="M1158.05 307.632H986.573C992.106 344.053 1016.99 366.174 1053.41 366.174C1078.76 366.174 1101.81 355.108 1112.42 337.595L1153.44 363.875C1136.84 394.295 1099.05 412.735 1052.49 412.735C987.499 412.735 935.409 361.567 935.409 294.258C935.409 228.8 986.573 178.09 1051.57 178.09C1112.42 178.09 1159.89 225.108 1159.89 285.501C1159.9 291.502 1159.43 300.716 1158.05 307.632ZM1105.96 268.445C1103.19 240.323 1079.68 220.501 1048.8 220.501C1017.92 220.501 996.255 238.94 988.414 268.445H1105.96Z" fill="#F51317"/>
<path fill-rule="evenodd" clip-rule="evenodd" d="M1407.05 408.127V182.718H1355.88V213.138C1343.89 192.847 1313.93 178.1 1283.97 178.1C1223.13 178.1 1175.64 229.736 1175.64 295.194C1175.64 361.119 1223.13 412.745 1283.97 412.745C1313.93 412.745 1343.89 397.987 1355.88 377.707V408.127H1407.05ZM1355.88 267.966V323.149C1355.88 328.38 1354.15 333.486 1350.85 337.542C1338.29 353.07 1316.61 363.865 1294.58 363.865C1255.86 363.865 1226.36 334.37 1226.36 295.183C1226.36 255.996 1255.86 226.959 1294.58 226.959C1317.11 226.959 1338.58 237.848 1351.04 253.791C1354.19 257.837 1355.88 262.829 1355.88 267.966Z" fill="#F51317"/>
<path d="M1784.84 270.296V408.127H1732.75V279.968C1732.75 246.314 1713.85 225.576 1683.42 225.576C1663.14 225.576 1642.4 239.408 1632.26 256.464L1633.64 264.306V408.127H1582.02V279.968C1582.02 246.314 1562.2 225.576 1533.62 225.576C1510.57 225.576 1491.67 238.94 1482.45 256.922V408.127H1431.29V182.707H1482.45V212.212C1493.52 196.997 1516.11 178.1 1551.13 178.1C1582.02 178.1 1604.6 189.623 1618.89 214.521C1634.11 196.539 1659.92 178.1 1692.65 178.1C1747.03 178.09 1784.84 214.51 1784.84 270.296Z" fill="#F51317"/>
<path d="M1820.52 341.744L1800.24 380.463C1822.37 400.286 1861.54 413.192 1897.97 413.192C1949.59 413.192 1986.01 383.687 1986.01 343.117C1986.01 293.367 1941.11 281.64 1904.85 272.169C1880.3 265.757 1859.71 260.379 1859.71 244.931C1859.71 230.173 1872.16 220.959 1891.05 220.959C1909.96 220.959 1942.22 229.258 1960.2 244.931L1980.48 205.286C1960.19 186.847 1927.46 178.09 1896.12 178.09C1844.49 178.09 1808.54 207.127 1808.54 249.08C1808.54 298.015 1851.66 308.264 1887.32 316.74C1912.47 322.717 1933.91 327.813 1933.91 344.968C1933.91 359.268 1919.16 369.866 1896.58 369.866C1871.22 369.866 1838.03 358.343 1820.52 341.744Z" fill="#F51317"/>
</g>
<defs>
<clipPath id="clip0">
<rect width="1986" height="468" fill="white"/>
</clipPath>
</defs>
</svg>
