<?xml version="1.0" encoding="UTF-8"?><svg id="Layer_2" xmlns="http://www.w3.org/2000/svg" xmlns:xlink="http://www.w3.org/1999/xlink" viewBox="0 0 543.31 113"><defs><style>.cls-1{clip-path:url(#clippath);}.cls-2{fill:url(#linear-gradient);}.cls-2,.cls-3,.cls-4,.cls-5,.cls-6{fill-rule:evenodd;}.cls-7,.cls-4{fill:#38c6f4;}.cls-8{clip-rule:evenodd;fill:none;}.cls-3{fill:url(#linear-gradient-2);fill-opacity:.25;}.cls-9{filter:url(#drop-shadow-1);}.cls-5{fill:#2f2f36;}.cls-6{fill:#fff;}</style><filter id="drop-shadow-1" filterUnits="userSpaceOnUse"><feOffset dx="0" dy="7"/><feGaussianBlur result="blur" stdDeviation="15"/><feFlood flood-color="#000" flood-opacity=".1"/><feComposite in2="blur" operator="in"/><feComposite in="SourceGraphic"/></filter><clipPath id="clippath"><path id="path-1-2" class="cls-8" d="M31.92,0h48.83c.56,0,1.1,0,1.63,0h.62c.61,.02,1.21,.03,1.77,.05l.56,.02c6.19,.23,9.65,.98,12.54,2.2l.26,.11h0l.26,.11c.08,.04,.17,.08,.25,.12l.25,.12c.17,.08,.33,.16,.5,.24l.25,.13s.08,.04,.12,.06l.25,.13s.08,.04,.12,.07c4.1,2.19,7.32,5.41,9.51,9.51l.07,.12h0l.13,.25s.04,.08,.06,.12l.13,.25c.08,.16,.16,.33,.24,.5l.12,.25c.04,.08,.08,.17,.12,.25l.11,.26h0l.11,.26c1.22,2.9,1.97,6.36,2.2,12.54l.02,.56c.02,.57,.03,1.16,.04,1.77v.62c.01,.53,.02,1.07,.02,1.63v48.49c0,.56,0,1.1,0,1.63v.62c-.02,.61-.03,1.21-.05,1.77l-.02,.56c-.23,6.19-.98,9.65-2.2,12.54l-.11,.26h0l-.11,.26c-.04,.08-.08,.17-.12,.25l-.12,.25c-.08,.17-.16,.33-.24,.5l-.13,.25s-.04,.08-.06,.12l-.13,.25s-.04,.08-.07,.12c-2.19,4.1-5.41,7.32-9.51,9.51l-.12,.07h0l-.25,.13s-.08,.04-.12,.06l-.25,.13c-.16,.08-.33,.16-.5,.24l-.25,.12c-.08,.04-.17,.08-.25,.12l-.26,.11h0l-.26,.11c-2.9,1.22-6.36,1.97-12.54,2.2l-.56,.02c-.57,.02-1.16,.03-1.77,.04h-.62c-.53,.01-1.07,.02-1.63,.02H32.25c-.56,0-1.1,0-1.63,0h-.62c-.61-.02-1.21-.03-1.77-.05l-.56-.02c-6.19-.23-9.65-.98-12.54-2.2l-.26-.11h0l-.26-.11c-.08-.04-.17-.08-.25-.12l-.25-.12c-.17-.08-.33-.16-.5-.24l-.25-.13s-.08-.04-.12-.06l-.25-.13s-.08-.04-.12-.07c-4.1-2.19-7.32-5.41-9.51-9.51l-.07-.12h0l-.13-.25s-.04-.08-.06-.12l-.13-.25c-.08-.16-.16-.33-.24-.5l-.12-.25c-.04-.08-.08-.17-.12-.25l-.11-.26h0l-.11-.26c-1.22-2.9-1.97-6.36-2.2-12.54l-.02-.56c-.02-.57-.03-1.16-.04-1.77v-.62c-.01-.42-.02-.85-.02-1.3V32.25c0-.56,0-1.1,0-1.63v-.62c.02-.61,.03-1.21,.05-1.77l.02-.56c.23-6.19,.98-9.65,2.2-12.54l.11-.26h0l.11-.26c.04-.08,.08-.17,.12-.25l.12-.25c.08-.17,.16-.33,.24-.5l.13-.25s.04-.08,.06-.12l.13-.25s.04-.08,.07-.12c2.19-4.1,5.41-7.32,9.51-9.51l.12-.07h0l.25-.13s.08-.04,.12-.06l.25-.13c.16-.08,.33-.16,.5-.24l.25-.12c.08-.04,.17-.08,.25-.12l.26-.11h0l.26-.11C18.02,1.06,21.48,.31,27.67,.08l.56-.02c.57-.02,1.16-.03,1.77-.04h.62c.42-.01,.85-.02,1.3-.02Z"/></clipPath><linearGradient id="linear-gradient" x1="-24.89" y1="463.65" x2="-24.67" y2="462.99" gradientTransform="translate(1788.29 50420.9) scale(68.16 -108.77)" gradientUnits="userSpaceOnUse"><stop offset="0" stop-color="#666"/><stop offset="1" stop-color="#3a3a3a"/></linearGradient><linearGradient id="linear-gradient-2" x1="-24.72" y1="463.19" x2="-24.75" y2="463.83" gradientTransform="translate(1748.35 60086.02) scale(66.48 -129.49)" gradientUnits="userSpaceOnUse"><stop offset="0" stop-color="#000" stop-opacity="0"/><stop offset="1" stop-color="#000"/></linearGradient></defs><g id="shadow"><g id="shadow-2" class="cls-9"><path id="path-1" class="cls-6" d="M31.92,0h48.83c.56,0,1.1,0,1.63,0h.62c.61,.02,1.21,.03,1.77,.05l.56,.02c6.19,.23,9.65,.98,12.54,2.2l.26,.11h0l.26,.11c.08,.04,.17,.08,.25,.12l.25,.12c.17,.08,.33,.16,.5,.24l.25,.13s.08,.04,.12,.06l.25,.13s.08,.04,.12,.07c4.1,2.19,7.32,5.41,9.51,9.51l.07,.12h0l.13,.25s.04,.08,.06,.12l.13,.25c.08,.16,.16,.33,.24,.5l.12,.25c.04,.08,.08,.17,.12,.25l.11,.26h0l.11,.26c1.22,2.9,1.97,6.36,2.2,12.54l.02,.56c.02,.57,.03,1.16,.04,1.77v.62c.01,.53,.02,1.07,.02,1.63v48.49c0,.56,0,1.1,0,1.63v.62c-.02,.61-.03,1.21-.05,1.77l-.02,.56c-.23,6.19-.98,9.65-2.2,12.54l-.11,.26h0l-.11,.26c-.04,.08-.08,.17-.12,.25l-.12,.25c-.08,.17-.16,.33-.24,.5l-.13,.25s-.04,.08-.06,.12l-.13,.25s-.04,.08-.07,.12c-2.19,4.1-5.41,7.32-9.51,9.51l-.12,.07h0l-.25,.13s-.08,.04-.12,.06l-.25,.13c-.16,.08-.33,.16-.5,.24l-.25,.12c-.08,.04-.17,.08-.25,.12l-.26,.11h0l-.26,.11c-2.9,1.22-6.36,1.97-12.54,2.2l-.56,.02c-.57,.02-1.16,.03-1.77,.04h-.62c-.53,.01-1.07,.02-1.63,.02H32.25c-.56,0-1.1,0-1.63,0h-.62c-.61-.02-1.21-.03-1.77-.05l-.56-.02c-6.19-.23-9.65-.98-12.54-2.2l-.26-.11h0l-.26-.11c-.08-.04-.17-.08-.25-.12l-.25-.12c-.17-.08-.33-.16-.5-.24l-.25-.13s-.08-.04-.12-.06l-.25-.13s-.08-.04-.12-.07c-4.1-2.19-7.32-5.41-9.51-9.51l-.07-.12h0l-.13-.25s-.04-.08-.06-.12l-.13-.25c-.08-.16-.16-.33-.24-.5l-.12-.25c-.04-.08-.08-.17-.12-.25l-.11-.26h0l-.11-.26c-1.22-2.9-1.97-6.36-2.2-12.54l-.02-.56c-.02-.57-.03-1.16-.04-1.77v-.62c-.01-.42-.02-.85-.02-1.3V32.25c0-.56,0-1.1,0-1.63v-.62c.02-.61,.03-1.21,.05-1.77l.02-.56c.23-6.19,.98-9.65,2.2-12.54l.11-.26h0l.11-.26c.04-.08,.08-.17,.12-.25l.12-.25c.08-.17,.16-.33,.24-.5l.13-.25s.04-.08,.06-.12l.13-.25s.04-.08,.07-.12c2.19-4.1,5.41-7.32,9.51-9.51l.12-.07h0l.25-.13s.08-.04,.12-.06l.25-.13c.16-.08,.33-.16,.5-.24l.25-.12c.08-.04,.17-.08,.25-.12l.26-.11h0l.26-.11C18.02,1.06,21.48,.31,27.67,.08l.56-.02c.57-.02,1.16-.03,1.77-.04h.62c.42-.01,.85-.02,1.3-.02Z"/></g></g><g id="logo"><g class="cls-1"><g id="pen_and_ink"><path id="Path" class="cls-4" d="M44.43,78.92c2.73,0,5.24,1.09,8.06,3.27l.14,.11,.25,.2,.25,.2,.25,.21,.25,.21,.13,.11,.26,.22,.13,.11,.13,.11,.34,.3c2.4,2.1,5.4,2.57,9.13,1.52l.26-.07,.38-.11,.36-.11,.34-.1,.42-.13,.29-.09,.27-.09,.24-.08,.15-.05,.14-.05,.13-.05,.12-.05,.11-.05,.1-.06,.09-.05,.04-.03c.14-.1,.31-.2,.49-.28l.09-.04,.09-.04c.51-.19,1.01-.21,1.46,.06,1.3,.78,1.21,2.33,.12,3.17-.26,.2-.57,.37-1.02,.55l-.09,.04-.14,.06-.15,.06-.24,.09-.17,.06-.18,.06-.28,.1-.3,.1-.21,.07-.34,.11-.36,.11-.38,.11-.54,.16-.29,.08c-4.88,1.37-9.24,.57-12.72-2.45l-.23-.2-.12-.11-.24-.21-.24-.2-.24-.2c-2.5-2.06-4.5-3.06-6.53-3.06-1.17,0-2.06,.27-3.39,1.11l-.1,.07-.18,.12-.09,.06-.24,.16-.25,.18-.88,.62-.25,.17c-.72,.49-1.28,.82-1.87,1.08-.9,.4-2.04,.71-3.45,.91l-.16,.02-.27,.04-.14,.02-.28,.03-.29,.03-.29,.03h-.15s-.15,.03-.15,.03l-.31,.02-.31,.02-.32,.02-.33,.02h-.17s-.34,.02-.34,.02h-.17s-.35,.02-.35,.02h-.35s-.18,.01-.18,.01h-.18s-.46,0-.46,0h-.47s-.19,0-.19,0c-1,0-1.82-.8-1.82-1.8s.79-1.77,1.76-1.8h.06s.34,0,.34,0h.33s.32,0,.32,0h.32s.31-.01,.31-.01h.31s.15-.02,.15-.02h.3s.29-.03,.29-.03l.28-.02,.35-.02,.34-.02,.26-.02,.25-.02h.13s.25-.04,.25-.04l.24-.03h.12s.23-.04,.23-.04l.22-.03,.11-.02,.21-.03,.26-.04,.25-.05,.19-.04,.18-.04,.09-.02,.09-.02,.17-.04c.36-.1,.67-.2,.93-.32,.09-.04,.18-.08,.27-.13l.09-.05,.13-.07s.09-.05,.13-.08l.07-.04,.14-.09,.15-.1,.08-.05,.16-.11,.22-.15,.32-.22,.64-.45,.25-.17c.23-.16,.45-.3,.67-.44l.16-.1,.23-.14c1.79-1.08,3.21-1.5,5.05-1.5Z"/><rect id="Rectangle" class="cls-7" x="26" y="28.93" width="60.66" height="3.96" rx="1.98" ry="1.98"/><path id="Rectangle-Copy" class="cls-4" d="M27.98,46.09h56.7c1.09,0,1.98,.89,1.98,1.98h0c0,1.09-.89,1.98-1.98,1.98H27.98c-1.09,0-1.98-.89-1.98-1.98h0c0-1.09,.89-1.98,1.98-1.98Z"/><path id="Rectangle-Copy-2" class="cls-4" d="M27.98,63.25h56.7c1.09,0,1.98,.89,1.98,1.98h0c0,1.09-.89,1.98-1.98,1.98H27.98c-1.09,0-1.98-.89-1.98-1.98h0c0-1.09,.89-1.98,1.98-1.98Z"/><g id="pen"><path class="cls-2" d="M97.8,15.07v3.07c-.13,.96,3.57,3.84,8.54,6.61,5.09,2.84,9.57,4.5,10.2,3.79l2.83-1.35c13.82-23,20.23-44.4,14.22-47.75-6.01-3.35-21.97,12.62-35.79,35.63Zm-8.25,16.62c-12.9,21.8-20.68,41.77-19.61,49.15l-2.04,3.47c-.55,.94,.03,2.29,1.29,3.02,1.26,.72,2.72,.55,3.26-.39l2.07-3.51c7.08-2.77,20.91-19.3,33.8-41.1l5.8-9.8c-3.02-.68-6.65-2.52-9.94-4.39-3.29-1.86-6.73-4.03-8.84-6.25l-5.8,9.79Z"/><path id="shadow-3" class="cls-3" d="M135.84,.34c1.82-20.37-2.26-20.89-2.26-20.89,0,0-9.12,24.69-11.96,30.21-1.82,3.54-5.25,10.2-11.58,22.53-16.22,31.59-39.55,53.26-39.93,53.79s-.43,1.33,.18,1.79c3.87,2.93,19.81,13.18,32.92,20.83,10.97,6.4,30.31-82.29,32.63-108.27Z"/></g></g></g></g><g id="wordmarks"><path id="Fill-1" class="cls-5" d="M189.05,52.9c.67,.67,1.01,1.54,1.01,2.6v16.59c0,1.11-.38,1.96-1.12,2.57-4.86,4.03-10.54,6.04-17.03,6.04-4.96,0-9.49-1.22-13.59-3.67-4.1-2.46-7.34-5.81-9.71-10.07-2.36-4.26-3.54-8.95-3.54-14.09s1.18-9.75,3.54-13.99c2.37-4.23,5.6-7.59,9.71-10.07,4.1-2.47,8.63-3.71,13.59-3.71,3.52,0,6.57,.46,9.15,1.39,2.57,.92,5.17,2.45,7.82,4.57,.55,.43,.93,.85,1.11,1.29,.19,.44,.28,.96,.28,1.56,0,.92-.34,1.69-1.01,2.29-.67,.6-1.47,.9-2.39,.9-.84,0-1.63-.3-2.37-.9-1.9-1.62-3.76-2.79-5.56-3.5-1.8-.71-4.15-1.08-7.02-1.08-3.61,0-6.94,.95-9.98,2.85-3.04,1.9-5.44,4.48-7.23,7.74-1.78,3.26-2.67,6.81-2.67,10.65s.89,7.45,2.67,10.69c1.78,3.24,4.19,5.81,7.23,7.71,3.03,1.9,6.36,2.84,9.98,2.84,3.89,0,7.63-1.15,11.2-3.47v-12.36h-9.6c-1.07,0-1.94-.29-2.61-.9-.67-.6-1.01-1.36-1.01-2.29s.34-1.69,1.01-2.29c.67-.59,1.54-.9,2.61-.9h13c1.02,0,1.87,.34,2.54,1.01"/><path id="Fill-4" class="cls-5" d="M224.72,72.37c1.88-1.12,3.34-2.65,4.38-4.62,1.04-1.96,1.56-4.2,1.56-6.7s-.52-4.74-1.56-6.73c-1.04-1.99-2.51-3.54-4.38-4.65-1.88-1.11-4-1.67-6.36-1.67s-4.48,.56-6.36,1.67c-1.88,1.11-3.35,2.66-4.42,4.65-1.06,1.99-1.6,4.24-1.6,6.73s.53,4.73,1.6,6.7c1.06,1.97,2.54,3.5,4.42,4.62,1.88,1.11,4,1.66,6.36,1.66s4.49-.55,6.36-1.66m-16.3,5.45c-2.92-1.64-5.19-3.92-6.81-6.83-1.62-2.92-2.43-6.23-2.43-9.93s.82-7.07,2.43-10c1.62-2.91,3.89-5.19,6.81-6.83,2.92-1.64,6.23-2.47,9.94-2.47s6.95,.82,9.84,2.47c2.9,1.64,5.17,3.92,6.81,6.83,1.64,2.92,2.47,6.25,2.47,10s-.82,7.01-2.43,9.93c-1.62,2.92-3.88,5.2-6.78,6.83-2.9,1.64-6.2,2.46-9.91,2.46s-7.02-.82-9.94-2.46"/><path id="Fill-6" class="cls-5" d="M271.65,72.37c1.88-1.12,3.34-2.65,4.38-4.62,1.04-1.96,1.56-4.2,1.56-6.7s-.52-4.74-1.56-6.73c-1.04-1.99-2.51-3.54-4.38-4.65-1.88-1.11-4-1.67-6.36-1.67s-4.48,.56-6.36,1.67c-1.88,1.11-3.35,2.66-4.42,4.65-1.06,1.99-1.6,4.24-1.6,6.73s.53,4.73,1.6,6.7c1.06,1.97,2.54,3.5,4.42,4.62,1.88,1.11,4,1.66,6.36,1.66s4.49-.55,6.36-1.66m-16.3,5.45c-2.92-1.64-5.19-3.92-6.81-6.83-1.62-2.92-2.43-6.23-2.43-9.93s.82-7.07,2.43-10c1.62-2.91,3.89-5.19,6.81-6.83,2.92-1.64,6.23-2.47,9.94-2.47s6.95,.82,9.84,2.47c2.9,1.64,5.17,3.92,6.81,6.83,1.64,2.92,2.47,6.25,2.47,10s-.82,7.01-2.43,9.93c-1.62,2.92-3.88,5.2-6.78,6.83-2.9,1.64-6.2,2.46-9.91,2.46s-7.02-.82-9.94-2.46"/><path id="Fill-8" class="cls-5" d="M318.51,72.34c1.88-1.13,3.35-2.69,4.41-4.69,1.07-1.99,1.6-4.21,1.6-6.67s-.53-4.66-1.6-6.62c-1.06-1.97-2.54-3.52-4.41-4.65-1.88-1.13-3.97-1.7-6.29-1.7s-4.41,.57-6.29,1.7c-1.88,1.13-3.36,2.68-4.45,4.65-1.09,1.97-1.63,4.18-1.63,6.62s.54,4.68,1.63,6.67c1.09,1.99,2.57,3.56,4.45,4.69,1.88,1.13,3.97,1.7,6.29,1.7s4.42-.56,6.29-1.7m11.86-45.57c.64,.65,.97,1.51,.97,2.57v31.65c0,3.61-.85,6.89-2.54,9.82-1.69,2.94-3.98,5.26-6.88,6.94-2.9,1.69-6.13,2.53-9.7,2.53s-6.83-.84-9.77-2.53c-2.94-1.69-5.25-4-6.92-6.94-1.67-2.93-2.51-6.21-2.51-9.82s.78-6.88,2.33-9.82c1.56-2.94,3.69-5.24,6.4-6.91,2.71-1.66,5.73-2.5,9.07-2.5,2.69,0,5.19,.56,7.51,1.67,2.31,1.11,4.29,2.66,5.91,4.65V29.33c0-1.06,.34-1.91,1.01-2.57,.67-.64,1.52-.97,2.54-.97s1.92,.33,2.57,.97"/><path id="Fill-10" class="cls-5" d="M343.01,79.02c-.67-.67-1-1.54-1-2.6V29.43c0-1.06,.34-1.93,1-2.6,.67-.67,1.52-1.01,2.54-1.01,.51,0,1.02,.13,1.53,.38,.51,.26,.93,.57,1.26,.94l30.31,40.26V29.43c0-1.06,.34-1.93,1.04-2.6,.7-.67,1.55-1.01,2.57-1.01s1.86,.34,2.54,1.01c.67,.67,1.01,1.54,1.01,2.6v46.99c0,1.07-.34,1.94-1.01,2.6-.67,.67-1.52,1.01-2.54,1.01-.51,0-1.03-.11-1.56-.31-.53-.21-.94-.52-1.22-.94l-30.31-40.26v37.9c0,1.02-.34,1.88-1.01,2.57-.67,.7-1.54,1.04-2.6,1.04s-1.87-.34-2.54-1.01"/><path id="Fill-12" class="cls-5" d="M420.15,72.37c1.88-1.12,3.34-2.65,4.38-4.62,1.04-1.96,1.56-4.2,1.56-6.7s-.52-4.74-1.56-6.73c-1.04-1.99-2.51-3.54-4.38-4.65-1.88-1.11-4-1.67-6.36-1.67s-4.48,.56-6.36,1.67c-1.88,1.11-3.35,2.66-4.42,4.65-1.06,1.99-1.6,4.24-1.6,6.73s.53,4.73,1.6,6.7c1.06,1.97,2.54,3.5,4.42,4.62,1.88,1.11,4,1.66,6.36,1.66s4.49-.55,6.36-1.66m-16.3,5.45c-2.92-1.64-5.19-3.92-6.81-6.83-1.62-2.92-2.43-6.23-2.43-9.93s.82-7.07,2.43-10c1.62-2.91,3.89-5.19,6.81-6.83,2.92-1.64,6.23-2.47,9.94-2.47s6.95,.82,9.84,2.47c2.9,1.64,5.17,3.92,6.81,6.83,1.64,2.92,2.47,6.25,2.47,10s-.82,7.01-2.43,9.93c-1.62,2.92-3.88,5.2-6.78,6.83-2.9,1.64-6.2,2.46-9.91,2.46s-7.02-.82-9.94-2.46"/><path id="Fill-14" class="cls-5" d="M461.8,74.03c.58,.65,.87,1.48,.87,2.5s-.38,1.85-1.15,2.5c-.76,.65-1.75,.97-2.95,.97h-1.25c-2.28,0-4.35-.59-6.23-1.77-1.88-1.18-3.35-2.79-4.42-4.82-1.06-2.03-1.59-4.33-1.59-6.87v-17.14h-3.2c-.98,0-1.77-.28-2.37-.83-.61-.56-.9-1.25-.9-2.09,0-.92,.29-1.66,.9-2.22,.6-.56,1.39-.83,2.37-.83h3.2v-10c0-1.01,.32-1.85,.97-2.5,.65-.65,1.48-.97,2.51-.97s1.85,.32,2.5,.97,.97,1.48,.97,2.5v10h5.91c.98,0,1.76,.28,2.37,.83,.6,.56,.9,1.3,.9,2.22,0,.83-.3,1.53-.9,2.09-.61,.55-1.39,.83-2.37,.83h-5.91v17.14c0,1.85,.51,3.4,1.53,4.65,1.02,1.25,2.27,1.87,3.76,1.87h2.36c.84,0,1.54,.33,2.13,.97"/><path id="Fill-16" class="cls-5" d="M479.94,50.5c-2.11,1.85-3.44,4.33-4,7.43h23.16c-.42-3.1-1.58-5.57-3.49-7.43-1.89-1.85-4.38-2.77-7.43-2.77-3.38,0-6.13,.92-8.24,2.77m24.65,12.12c-.61,.57-1.37,.86-2.3,.86h-26.42c.51,3.24,1.98,5.86,4.42,7.84,2.43,1.99,5.41,2.99,8.94,2.99,1.39,0,2.84-.26,4.34-.77,1.51-.5,2.75-1.13,3.72-1.88,.64-.5,1.41-.76,2.3-.76s1.57,.23,2.08,.7c.84,.69,1.25,1.48,1.25,2.35s-.37,1.53-1.11,2.09c-1.58,1.25-3.54,2.27-5.88,3.05-2.34,.78-4.58,1.18-6.71,1.18-3.8,0-7.21-.82-10.22-2.46-3.01-1.64-5.37-3.92-7.06-6.84-1.69-2.92-2.54-6.22-2.54-9.92s.81-7.02,2.4-9.96c1.6-2.94,3.83-5.23,6.68-6.88,2.85-1.64,6.09-2.46,9.7-2.46s6.65,.79,9.24,2.36c2.6,1.57,4.59,3.76,5.98,6.59,1.39,2.83,2.09,6.07,2.09,9.71,0,.89-.31,1.61-.9,2.2"/><path id="Fill-18" class="cls-5" d="M519.46,78.83c-2.78-.97-4.96-2.24-6.53-3.82-.6-.59-.9-1.31-.9-2.15,0-1.12,.46-2.02,1.39-2.71,.88-.65,1.69-.97,2.43-.97,.93,0,1.81,.41,2.64,1.25,.88,.97,2.2,1.81,3.97,2.53,1.76,.72,3.64,1.07,5.63,1.07,2.64,0,4.69-.44,6.15-1.32,1.45-.88,2.19-2.05,2.19-3.53s-.72-2.63-2.16-3.58c-1.43-.95-3.87-1.75-7.3-2.4-8.9-1.71-13.35-5.36-13.35-10.96,0-2.27,.68-4.19,2.02-5.77,1.35-1.57,3.11-2.75,5.28-3.53,2.18-.79,4.5-1.18,6.95-1.18,3.01,0,5.72,.49,8.1,1.46s4.27,2.32,5.66,4.03c.61,.74,.91,1.48,.91,2.22,0,.79-.4,1.5-1.18,2.15-.51,.37-1.17,.56-1.95,.56-1.2,0-2.3-.44-3.27-1.32-1.15-1.07-2.39-1.82-3.68-2.26-1.3-.44-2.87-.66-4.72-.66-2.13,0-3.89,.35-5.25,1.07-1.38,.71-2.06,1.72-2.06,3.02,0,.92,.23,1.7,.7,2.33,.46,.62,1.34,1.2,2.64,1.73,1.3,.53,3.17,1.06,5.63,1.57,5.05,1.01,8.64,2.42,10.74,4.23,2.12,1.81,3.17,4.14,3.17,7.01,0,2.12-.58,4.06-1.74,5.8-1.16,1.73-2.86,3.1-5.11,4.09-2.25,1-4.95,1.49-8.1,1.49s-6.12-.49-8.9-1.45"/></g></svg>