<?xml version="1.0" encoding="UTF-8"?>
<svg width="1287px" height="174px" viewBox="0 0 1287 174" version="1.1" xmlns="http://www.w3.org/2000/svg" xmlns:xlink="http://www.w3.org/1999/xlink">
    <title>mobile-dev copy</title>
    <defs>
        <polygon id="path-1" points="0 0 97 0 97 174 0 174"></polygon>
        <polygon id="path-3" points="0 0 1287 0 1287 149 0 149"></polygon>
    </defs>
    <g id="2022" stroke="none" stroke-width="1" fill="none" fill-rule="evenodd">
        <g id="mobile-dev-copy">
            <g id="Group-4" transform="translate(198.000000, 59.000000)" fill="#000000">
                <path d="M126.103696,0.0217644495 C119.06697,-0.197530553 112.041856,1.24519972 105.643777,4.13066028 C99.1992516,7.0622882 93.5327135,11.4251046 89.038963,16.8843959 C81.9209552,5.97735503 69.9956793,0.0217644495 55.3416403,0.0217644495 C44.7284932,-0.28986529 34.3359694,3.54202632 26.4051385,10.6171756 L26.4051385,2.09929605 L0,2.09929605 L0,112.289264 L26.4051385,112.289264 L26.4051385,54.5800526 C26.4051385,35.3282598 34.3824165,25.5407776 50.1744078,25.5407776 C64.3639765,25.5407776 70.7156084,33.7470274 70.7156084,52.0523891 L70.7156084,112.289264 L97.2020292,112.289264 L97.2020292,54.5800526 C97.2020292,35.3282598 105.190919,25.5407776 120.843569,25.5407776 C135.033138,25.5407776 141.431217,33.7470274 141.431217,52.0523891 L141.431217,112.289264 L167.824799,112.289264 L167.824799,49.1207612 C167.87119,4.80008713 138.667618,0.0217644495 126.103696,0.0217644495 Z" id="Fill-1"></path>
                <path d="M242.674138,0.0217644495 C231.375897,0.206433925 220.356338,3.71515396 211.008873,10.1208764 C201.707854,16.5727662 194.496952,25.5869449 190.281884,36.1361887 C186.066816,46.6392651 185.068205,58.1811074 187.378945,69.2728177 C189.689684,80.3645281 195.228493,90.5098074 203.298665,98.4852204 C211.368837,106.426008 221.575573,111.839132 232.688026,113.951289 C243.800478,116.121155 255.330954,114.89772 265.758313,110.523362 C276.185672,106.149004 285.126726,98.8083919 291.385464,89.3787069 C297.644202,79.9143962 301,68.8688532 301,57.5116805 C300.953553,49.8825228 299.409189,42.3572417 296.424967,35.3744271 C293.475581,28.3339034 289.167618,21.9858902 283.768151,16.6651009 C278.322236,11.3443117 271.924157,7.09691373 264.852596,4.25762054 C257.815871,1.37215999 250.291451,-0.0705702882 242.674138,0.0217644495 Z M274.153615,57.5116805 C274.060721,63.6865661 272.109945,69.7229496 268.614806,74.7782765 C265.07322,79.8682289 260.184669,83.7924552 254.413625,86.0892818 C248.70064,88.3861084 242.441903,88.928575 236.368953,87.6705142 C230.330839,86.4124534 224.803642,83.3884907 220.495679,79.0141325 C216.14127,74.593607 213.191883,69.0073553 212.007484,62.95943 C210.834696,56.8768792 211.461731,50.6096589 213.865365,44.8849051 C216.222552,39.1601514 220.216997,34.289494 225.349394,30.8615668 C230.47018,27.4336397 236.496682,25.5869449 242.674138,25.5407776 C246.842759,25.5407776 250.976545,26.3948739 254.831649,27.9761063 C258.686753,29.603506 262.17028,31.9465 265.07322,34.9242953 C268.022606,37.8905487 270.333346,41.456978 271.87771,45.335037 C273.422074,49.213096 274.200062,53.3566173 274.153615,57.5116805 Z" id="Fill-3"></path>
            </g>
            <path d="M578.37682,58.2830478 C566.330521,58.1904432 554.642262,62.3113498 545.263935,69.9049306 L545.263935,0 L519,0 L519,170.878719 L545.263935,170.878719 L545.263935,161.108929 C554.549864,168.887719 566.284323,173.089655 578.37682,172.998549 C593.218138,172.68451 607.389575,166.537877 617.761173,155.818889 C628.17897,145.099902 634,130.676728 634,115.6632 C634,100.649672 628.17897,86.2728014 617.761173,75.5538139 C607.389575,64.8464019 593.218138,58.6418908 578.37682,58.3756524 L578.37682,58.2830478 Z M608.105654,115.489567 C608.013257,121.775107 606.119112,127.875438 602.654213,133.026571 C599.131566,138.224007 594.211409,142.252309 588.436577,144.555849 C582.707944,146.905692 576.390278,147.496047 570.303606,146.234308 C564.205383,144.960995 558.661545,141.893466 554.284222,137.460018 C549.953098,132.980269 546.973285,127.331385 545.806769,121.13845 C544.628703,114.991817 545.310134,108.659974 547.700914,102.872184 C550.137893,97.0843936 554.145626,92.1531963 559.342975,88.7152489 C564.528774,85.2309992 570.569248,83.4252086 576.794516,83.4252086 C585.144923,83.5178133 593.125741,86.9557607 598.99297,92.963487 C604.860199,98.9827888 608.105654,107.07412 608.105654,115.489567 Z" id="Fill-5" fill="#000000"></path>
            <path d="M665.663846,5.00350144 C662.399212,4.95798268 659.180398,5.89111735 656.442688,7.71186794 C653.716432,9.48709976 651.574374,12.0702896 650.26852,15.0859078 C649.019941,18.1129056 648.664841,21.4471552 649.329222,24.6903671 C649.959239,27.8880603 651.528555,30.8695394 653.85389,33.1796167 C656.133406,35.489694 659.088759,37.0487117 662.307574,37.6745947 C665.526388,38.3346168 668.836841,37.9818464 671.883833,36.6959413 C674.885005,35.455555 677.473802,33.316173 679.272215,30.5622878 C681.059172,27.8084025 682.04429,24.5993296 681.99847,21.3105989 C681.99847,19.1825966 681.59755,17.0432147 680.784255,15.0517687 C679.982416,13.0489431 678.779656,11.2281925 677.25616,9.71469358 C675.732664,8.20119466 673.945707,7.00632709 671.929652,6.19836901 C669.959417,5.35627187 667.817359,4.95798268 665.663846,5.00350144 Z" id="Fill-6" fill="#000000"></path>
            <g id="Group-10" transform="translate(652.000000, 0.000000)">
                <mask id="mask-2" fill="white">
                    <use xlink:href="#path-1"></use>
                </mask>
                <g id="Clip-8"></g>
                <polygon id="Fill-7" fill="#000000" mask="url(#mask-2)" points="0 171.377001 26.4746638 171.377001 26.4746638 60.5262807 0 60.5262807"></polygon>
                <path d="M90.0814121,148.83778 C81.4855908,148.83778 78.5737272,145.530016 78.5737272,135.653148 L78.5737272,-0.0928495197 L52.0990634,-0.0928495197 L52.0990634,141.03842 C52.0990634,162.300961 63.3272094,174 83.7568444,174 C87.949928,173.90715 92.0847743,173.326841 96.0914986,172.14301 L97,171.910886 L97,148.071772 L95.5440682,148.385139 C93.7270653,148.744931 91.9100624,148.884205 90.0814121,148.83778 Z" id="Fill-9" fill="#000000" mask="url(#mask-2)"></path>
            </g>
            <path d="M808.823299,58 C793.862191,58.1848689 779.574274,64.2739877 769.104979,74.9732744 C758.670505,85.672561 752.867127,100.115443 753.006408,115.101376 C752.78588,129.994876 758.264269,144.437757 768.327327,155.402793 C779.12161,166.910881 794.129146,173 811.724989,173 C830.945777,173 846.812213,165.235507 857.560069,150.480659 L858.233261,149.579423 L839.871373,135.182759 L839.151754,136.130212 C833.162667,144.06802 822.600519,148.851502 811.086617,148.851502 C795.127327,148.851502 783.114334,139.376972 779.434992,124.171506 L864.53573,124.171506 L864.53573,123.085401 C864.767865,120.69366 865,117.354466 865,115.45956 C864.953573,81.69788 841.914162,58 808.823299,58 Z M779.934083,104.171004 C783.787526,90.7217924 794.988046,82.414247 809.496491,82.414247 C825.142399,82.414247 835.484019,90.3173917 838.2,104.171004 L779.934083,104.171004 Z" id="Fill-11" fill="#000000"></path>
            <path d="M892.652898,139.001519 C889.38609,138.956026 886.165132,139.934128 883.425599,141.708361 C880.697528,143.528087 878.554043,146.109823 877.29317,149.135118 C875.997909,152.149039 875.688422,155.481412 876.307396,158.677305 C876.937833,161.884572 878.508193,164.853 880.835077,167.17315 C883.116112,169.481928 886.073432,171.074188 889.29439,171.699719 C892.515348,172.325249 895.873856,171.961304 898.877026,170.721616 C901.926047,169.436435 904.470718,167.298257 906.270328,164.545921 C908.104326,161.839079 909.044249,158.643185 908.998399,155.356305 C908.998399,153.172634 908.597213,151.04583 907.783376,149.089624 C906.981002,147.087926 905.777442,145.2682 904.252931,143.755553 C902.728421,142.242906 900.940274,141.048711 898.922876,140.195714 C896.951329,139.399584 894.807845,139.001519 892.652898,139.001519 Z" id="Fill-12" fill="#000000"></path>
            <path d="M1010.74761,69.9109733 C1001.35774,62.3117027 989.681028,58.1877082 977.634729,58.2340452 C962.793412,58.5584044 948.621974,64.7559803 938.250377,75.4829996 C927.82103,86.1984346 922,100.597662 922,115.610856 C922,130.635633 927.82103,145.034861 938.250377,155.750296 C948.621974,166.477315 962.793412,172.674891 977.634729,172.999628 C989.727227,173.045587 1001.40394,168.828919 1010.74761,161.090637 L1010.74761,170.867748 L1037,170.867748 L1037,0 L1010.74761,0 L1010.74761,69.9109733 Z M1010.74761,115.529766 C1010.65522,121.773679 1008.76107,127.878581 1005.28462,133.033574 C1001.81972,138.246488 996.853369,142.219887 991.124736,144.571491 C985.396103,146.981016 979.078437,147.560228 973.026414,146.297545 C966.939741,145.034861 961.349704,141.999786 957.01858,137.563017 C952.641257,133.079911 949.661444,127.473132 948.483379,121.321893 C947.270664,115.15907 947.905895,108.78773 950.296676,103.04194 C952.641257,97.249813 956.648991,92.2685837 961.800141,88.7817232 C966.98594,85.2948628 973.026414,83.4413821 979.205484,83.4413821 C987.602089,83.4877191 995.629105,86.9282426 1001.54253,92.9404705 C1007.45596,98.9642826 1010.74761,107.108013 1010.74761,115.576103 L1010.74761,115.529766 Z" id="Fill-13" fill="#000000"></path>
            <path d="M1111.83775,58 C1096.88107,58.1848689 1082.60899,64.2739877 1072.1312,74.9732744 C1061.71142,85.7187783 1055.90976,100.115443 1056.00259,115.101376 C1055.86335,129.994876 1061.35172,144.437757 1071.36538,155.402793 C1082.15646,166.910881 1097.15955,173 1114.78499,173 C1134.00008,173 1149.82701,165.235507 1160.60649,150.480659 L1161.24467,149.579423 L1142.88822,135.182759 L1142.15721,136.130212 C1136.22792,144.06802 1125.62249,148.851502 1114.06558,148.851502 C1098.15744,148.851502 1086.1364,139.376972 1082.51617,124.171506 L1167.59169,124.171506 L1167.59169,123.085401 C1167.77734,120.69366 1167.99891,117.354466 1167.99891,115.45956 C1168.18345,81.69788 1144.97682,58 1111.83775,58 Z M1083.10793,104.171004 C1084.82523,97.7237014 1088.67753,92.0736461 1094.02666,88.1105194 C1099.4222,84.1820557 1105.94326,82.1484979 1112.61517,82.414247 C1128.24484,82.414247 1138.58339,90.3173917 1141.34498,104.171004 L1083.10793,104.171004 Z" id="Fill-14" fill="#000000"></path>
            <g id="Group-18" transform="translate(0.000000, 22.000000)">
                <mask id="mask-4" fill="white">
                    <use xlink:href="#path-3"></use>
                </mask>
                <g id="Clip-16"></g>
                <polygon id="Fill-15" fill="#000000" mask="url(#mask-4)" points="1258.13705 38.1322063 1228.18361 115.255609 1198.58981 38.1322063 1169.77326 38.1322063 1214.6338 148.222266 1214.90062 149 1241.86103 149 1287 38.1322063"></polygon>
                <path d="M142.725446,0 L-0.69605192,0 L-0.69605192,148.907136 L61.7050027,148.907136 C55.2665224,146.550717 49.6517036,142.244157 45.7074094,136.567856 C41.7631152,130.903163 39.6401568,124.100888 39.6401568,117.159318 C39.6401568,112.72507 40.4986209,108.372079 42.1691455,104.239639 C43.851271,100.165238 46.345457,96.3926457 49.4196863,93.2700997 C52.55192,90.1359458 56.2641969,87.6402306 60.3477015,85.9222499 C64.3732017,84.2507012 68.7699297,83.3801028 73.1666577,83.3801028 C82.0529205,83.3801028 90.5679557,86.920536 96.8672255,93.2700997 C103.166495,99.6196634 106.704759,108.186351 106.704759,117.159318 C106.704759,124.100888 104.5702,130.856731 100.579502,136.521424 C96.6468091,142.197725 91.0667929,146.504285 84.59351,148.907136 L147.029367,148.907136 L147.029367,0 L142.725446,0 Z" id="Fill-17" fill="#000000" mask="url(#mask-4)"></path>
            </g>
        </g>
    </g>
</svg>