<svg width="970" height="275" viewBox="0 0 970 275" fill="none" xmlns="http://www.w3.org/2000/svg">
<path d="M44.3173 121.077L0 137.129L126.409 183.066L170.741 166.981L44.3173 121.077Z" fill="#D53E45"/>
<path d="M81.9117 107.388L208.39 153.32L252.67 137.253L126.277 91.3134L81.9117 107.388Z" fill="#D53E45"/>
<path d="M250.359 44.4117L129.001 0.378342C127.606 -0.128326 125.335 -0.125641 123.934 0.383682L5.9032 43.213L5.85252 43.289C2.46852 44.6983 0.0871844 48.0277 0.0765177 51.921L0.0711873 51.9304L0.0658569 77.457L125.538 31.933C126.23 31.6824 127.385 31.693 128.05 31.933L163.319 44.7104C164.014 44.9623 164.013 45.3717 163.301 45.629L0.0658569 104.868V137.069L0.116516 137.086L250.358 46.245C251.754 45.7383 251.754 44.9184 250.359 44.4117Z" fill="#F55058"/>
<path d="M252.67 222.436C252.67 222.436 252.677 222.414 252.677 222.402C252.677 222.402 252.67 222.38 252.67 222.367V196.714L127 242.314C126.306 242.566 125.154 242.558 124.497 242.318L89.4958 229.635C88.8065 229.386 88.8118 228.979 89.5238 228.72L252.67 169.522V137.314L252.65 137.306L2.38112 228.135C0.983791 228.642 0.983794 229.463 2.37579 229.967L123.632 273.915C125.025 274.42 127.301 274.414 128.682 273.912L246.622 231.115C246.788 231.052 246.953 231.01 247.113 230.938L247.358 230.848L247.452 230.71C250.289 229.28 252.234 226.495 252.521 223.178L252.67 222.955V222.436Z" fill="#F55058"/>
<path fill-rule="evenodd" clip-rule="evenodd" d="M755.848 120.104V157.853C761.622 166.957 772.946 172.953 785.382 172.953C804.256 172.953 817.579 158.297 817.579 138.978C817.579 119.66 804.256 105.005 785.382 105.005C772.946 105.005 761.622 111 755.848 120.104ZM731.423 83.4649H750.742L755.848 91.6809C763.399 85.4649 773.835 81.6889 785.603 81.6889C818.467 81.6889 842.671 106.558 842.671 138.978C842.671 171.398 818.467 196.268 785.603 196.268C773.835 196.268 763.399 192.716 755.848 186.498V238.098H731.423V83.4649ZM405.825 126.404C395.108 123.73 388.078 121.545 388.045 115.757C387.998 107.785 397.052 104.102 405.477 104.052C412.933 104.009 420.293 106.666 427.346 111.96L428.798 113.053L441.85 94.7211L440.552 93.6744C430.522 85.6424 418.218 81.6171 403.985 81.701C384.132 81.817 362.834 92.9237 362.976 117.042C363.054 130.488 372.001 140.502 388.837 145.994C392.656 147.25 396.529 148.225 400.276 149.16L400.288 149.163C411.407 151.931 420.998 154.319 421.045 162.266C421.088 169.526 412.569 173.92 404.304 173.968C394.049 174.028 383.505 170.145 373.806 162.733L372.328 161.597L359.306 180.432L360.61 181.464C373.102 191.429 388.002 196.432 404.881 196.332C424.98 196.214 446.262 184.025 446.132 161.673C446.001 139.481 425.681 131.39 405.825 126.404ZM470.247 40.092H494.672V93.9013C502.444 85.464 514.214 81.688 525.76 81.688C553.295 81.688 570.836 100.785 570.836 129.429V194.492H546.411V129.875C546.411 117.883 537.53 105.004 521.096 105.004C508.662 105.004 499.115 111.444 494.672 124.545V194.492H470.247V40.092ZM678.886 120.103V157.852C672.89 166.956 661.565 172.952 649.353 172.952C630.478 172.952 617.155 158.296 617.155 138.979C617.155 119.66 630.478 105.004 649.353 105.004C661.565 105.004 672.89 110.999 678.886 120.103ZM649.131 196.267C660.899 196.267 671.114 192.716 678.886 186.498L683.263 194.491H703.311V83.4656H678.886V91.6802C671.114 85.4642 660.899 81.6882 649.131 81.6882C616.267 81.6882 592.062 106.558 592.062 138.979C592.062 171.399 616.267 196.267 649.131 196.267ZM942.503 126.766H885.436C889.434 112.776 901.424 104.116 914.526 104.116C929.182 104.116 939.616 111.666 942.503 126.766ZM916.302 81.6884C883.882 81.6884 859.455 106.558 859.455 138.978C859.455 171.399 883.882 196.267 916.746 196.267C936.287 196.267 952.496 188.052 962.044 176.948L945.614 159.407C939.84 165.847 930.07 172.063 916.746 172.063C900.092 172.063 887.214 161.404 884.77 145.639H969.372V138.978C967.818 103.45 947.167 81.6884 916.302 81.6884Z" fill="#F55058"/>
</svg>
