<svg width="9896" height="2244" viewBox="0 0 9896 2244" fill="none" xmlns="http://www.w3.org/2000/svg">
<path d="M855.642 1711.05C383.912 1711.05 0.144531 1327.23 0.144531 855.497C0.144531 383.767 383.912 0 855.642 0C1327.37 0 1711.19 383.767 1711.19 855.497C1711.19 1327.23 1327.43 1711.05 855.642 1711.05ZM855.642 136.001C458.912 136.001 136.092 458.767 136.092 855.552C136.092 1252.34 458.857 1575.1 855.642 1575.1C1252.43 1575.1 1575.19 1252.28 1575.19 855.552C1575.19 458.767 1252.43 136.001 855.642 136.001Z" fill="#003097"/>
<path d="M517.521 1191.18L394.318 1132.14L395.843 1110.62L549.764 1112.53C549.764 1112.53 625.418 1007.35 665.777 956.592C706.191 905.829 758.424 843.847 758.424 843.847L333.262 656.484L359.351 630.122L897.693 702.671C897.693 702.671 1053.19 540.907 1108.8 493.848C1131.19 475.003 1210.76 424.241 1243.88 457.084L1247.58 460.787C1280.75 493.739 1230.59 573.587 1211.91 596.135C1165.29 652.127 1004.77 808.934 1004.77 808.934L1081.68 1346.68L1055.54 1372.98L864.742 949.348C864.742 949.348 803.195 1002.13 752.759 1042.92C702.324 1083.72 597.804 1160.19 597.804 1160.19L600.962 1314.11L579.449 1315.79L519.427 1193.08L517.521 1191.18Z" fill="#003097"/>
<path d="M855.647 2244C770.299 2244 683.806 2235.61 598.621 2219.05C561.748 2211.92 537.674 2176.19 544.863 2139.37C552.053 2102.5 587.728 2078.48 624.547 2085.61C777.978 2115.46 933.533 2115.4 1086.85 2085.61C1123.78 2078.48 1159.4 2102.5 1166.59 2139.37C1173.78 2176.24 1149.71 2211.92 1112.84 2219.11C1027.6 2235.61 941.05 2244 855.647 2244Z" fill="#003097"/>
<path d="M855.635 1977.55C738.805 1977.55 623.119 1958.98 511.682 1922.33C476.007 1910.56 456.617 1872.16 468.327 1836.49C480.092 1800.81 518.545 1781.48 554.166 1793.13C749.59 1857.4 961.789 1857.4 1157.16 1793.13C1192.83 1781.42 1231.29 1800.81 1243 1836.49C1254.71 1872.16 1235.32 1910.56 1199.64 1922.33C1088.26 1958.93 972.519 1977.55 855.635 1977.55Z" fill="#003097"/>
<path d="M2372.84 667.047V518.301H3224.37V667.047H2881.83V1669.71H2715.38V667.047H2372.84Z" fill="#003097"/>
<path d="M3245.07 1669.71V857.567H3401.87V971.728C3450.13 891.336 3521.97 851.086 3617.4 851.086C3634.55 851.086 3653.29 852.72 3673.66 855.933V1015.95C3658.14 1013.83 3644.68 1012.2 3633.46 1011.11C3622.24 1010.02 3613.09 1009.47 3606.12 1009.47C3528.4 1009.47 3471.32 1038.94 3434.83 1097.93C3430.03 1107.08 3425.73 1116.83 3421.97 1127.28C3418.21 1137.74 3415 1148.47 3412.33 1159.47C3409.61 1170.47 3407.65 1180.93 3406.29 1190.84C3404.92 1200.76 3404 1209.74 3403.45 1217.75C3402.91 1225.27 3402.47 1234.53 3402.26 1245.47C3401.98 1256.48 3401.87 1268.95 3401.87 1282.89V1669.66H3245.07V1669.71Z" fill="#003097"/>
<path d="M3755.41 1261.27C3755.41 1206.04 3763.31 1153.1 3779.1 1102.45C3794.9 1051.8 3818.1 1006.37 3848.66 966.176C3879.21 925.98 3917.77 894.063 3964.45 870.479C4011.07 846.895 4063.36 835.076 4121.26 835.076C4240.81 835.076 4330.84 874.673 4391.46 953.921V857.625H4545.88V1669.77H4391.46V1575.71C4356.06 1618.62 4316.68 1648.85 4273.27 1666.55C4229.86 1684.26 4179.21 1693.08 4121.31 1693.08C4061.84 1693.08 4009.44 1680.72 3964.12 1656.1C3918.81 1631.42 3880.63 1598.85 3849.53 1558.39C3818.43 1517.92 3794.95 1471.84 3779.16 1420.1C3763.31 1368.35 3755.41 1315.41 3755.41 1261.27ZM3929.92 1159.69C3922.4 1184.86 3917.83 1210.95 3916.25 1237.96C3914.61 1264.98 3915.54 1291.61 3919.08 1317.86C3922.57 1344.12 3928.61 1369.28 3937.16 1393.35C3945.71 1417.43 3956.99 1438.83 3970.93 1457.57C3989.18 1484.31 4013.42 1505.5 4043.7 1521.02C4073.98 1536.54 4108.68 1544.28 4147.78 1544.28C4226.05 1544.28 4286.35 1517.54 4328.72 1464C4370.55 1411 4391.46 1344.66 4391.46 1264.87C4392.01 1226.31 4387.16 1190.09 4376.98 1156.04C4366.79 1122.06 4351.38 1092.37 4330.73 1066.94C4310.09 1041.5 4284.49 1021.3 4253.94 1006.32C4223.38 991.34 4187.98 983.823 4147.78 983.823C4117.23 983.823 4089.99 988.398 4066.19 997.494C4042.34 1006.59 4021.59 1019.01 4003.88 1034.8C3986.18 1050.6 3971.2 1069.23 3958.84 1090.63C3946.53 1112.04 3936.89 1135.08 3929.92 1159.69Z" fill="#003097"/>
<path d="M4685.52 857.629H4851.97L5053.01 1439L5248.38 857.629H5409.98L5118.91 1669.77H4982.25L4685.52 857.629Z" fill="#003097"/>
<path d="M5483.79 1256.43C5483.79 1215.14 5487.93 1176.53 5496.26 1140.63C5504.6 1104.74 5516.36 1071.9 5531.66 1042.1C5546.97 1012.31 5564.89 985.785 5585.53 962.473C5606.12 939.162 5629.05 919.173 5654.27 902.561C5688.04 878.977 5723.71 861.82 5761.24 851.091C5798.77 840.361 5837.6 835.023 5877.85 835.023C5914.83 835.023 5951 839.98 5986.4 849.893C6021.8 859.805 6056.34 875.763 6090.1 897.713C6123.87 919.717 6153.61 949.728 6179.38 987.8C6205.14 1025.87 6224.15 1070.92 6236.46 1122.88C6246.64 1165.8 6251.71 1218.03 6251.71 1279.68V1297.38H5651.87C5653.51 1373.53 5677.09 1436.76 5722.68 1487.14C5760.69 1530.06 5816.2 1551.47 5889.13 1551.47C5910.04 1551.47 5930.25 1548.8 5949.8 1543.41C5969.35 1538.07 5987.33 1530.28 6003.67 1520.1C6020.01 1509.91 6034.6 1497.71 6047.51 1483.5C6060.37 1469.28 6070.82 1453.38 6078.88 1435.67H6243.7C6218.48 1498.91 6188.2 1548.64 6152.85 1584.8C6117.45 1620.97 6079.38 1647.11 6038.69 1663.18C6009.71 1674.94 5983.08 1682.9 5958.68 1686.87C5934.28 1690.9 5908.95 1692.92 5882.7 1692.92C5760.48 1692.92 5663.47 1653.81 5591.63 1575.54C5519.68 1497.38 5483.79 1391.01 5483.79 1256.43ZM6080.41 1179.25C6076.65 1117.59 6054.92 1068.3 6015.27 1031.32C5975.56 994.881 5928.18 976.635 5872.95 976.635C5816.69 976.635 5768.92 995.153 5729.81 1032.14C5689.62 1069.66 5665.22 1118.74 5656.66 1179.3H6080.41V1179.25Z" fill="#003097"/>
<path d="M6781.48 1669.71V518.301H7242.21C7276.53 518.301 7309.86 522.168 7342.32 529.957C7374.73 537.745 7405.07 549.238 7433.23 564.543C7461.33 579.793 7487.37 598.42 7511.22 620.425C7535.08 642.429 7555.88 667.865 7573.53 696.786C7608.33 754.139 7625.82 818.736 7625.82 890.576C7625.82 962.417 7608.39 1027.01 7573.58 1084.37C7538.24 1141.72 7491.67 1186.22 7433.82 1217.86C7375.44 1248.96 7311.77 1264.49 7242.7 1264.49H6946.35V1669.77H6781.48V1669.71ZM6946.35 1115.68H7239.38C7306.81 1115.68 7361.44 1094.77 7403.16 1052.89C7444.88 1011 7465.8 957.024 7465.8 890.957C7465.8 825.435 7444.94 772.004 7403.16 730.664C7360.89 689.324 7306.26 668.627 7239.38 668.627H6946.35V1115.68Z" fill="#003097"/>
<path d="M7676.26 1256.43C7676.26 1215.14 7680.4 1176.53 7688.73 1140.63C7697.06 1104.74 7708.83 1071.9 7724.13 1042.1C7739.38 1012.36 7757.36 985.785 7778 962.473C7798.59 939.162 7821.52 919.173 7846.74 902.561C7880.51 878.977 7916.18 861.82 7953.71 851.091C7991.24 840.361 8030.07 835.023 8070.32 835.023C8107.3 835.023 8143.47 839.98 8178.87 849.893C8214.27 859.805 8248.81 875.763 8282.57 897.713C8316.34 919.717 8346.08 949.728 8371.84 987.8C8397.61 1025.87 8416.62 1070.92 8428.92 1122.88C8439.11 1165.8 8444.17 1218.03 8444.17 1279.68V1297.38H7844.34C7845.97 1373.53 7869.56 1436.76 7915.15 1487.14C7953.16 1530.06 8008.66 1551.47 8081.59 1551.47C8102.51 1551.47 8122.72 1548.8 8142.27 1543.41C8161.82 1538.07 8179.8 1530.28 8196.14 1520.1C8212.48 1509.91 8227.07 1497.71 8239.98 1483.5C8252.84 1469.28 8263.29 1453.38 8271.35 1435.67H8436.17C8410.95 1498.91 8380.67 1548.64 8345.32 1584.8C8309.92 1620.97 8271.84 1647.11 8231.16 1663.18C8202.18 1674.94 8175.55 1682.9 8151.15 1686.87C8126.75 1690.9 8101.42 1692.92 8075.17 1692.92C7952.95 1692.92 7855.94 1653.81 7784.1 1575.54C7712.15 1497.38 7676.26 1391.01 7676.26 1256.43ZM8272.88 1179.25C8269.12 1117.59 8247.39 1068.3 8207.74 1031.32C8168.03 994.881 8120.65 976.635 8065.42 976.635C8009.16 976.635 7961.39 995.153 7922.28 1032.14C7882.09 1069.66 7857.68 1118.74 7849.13 1179.3H8272.88V1179.25Z" fill="#003097"/>
<path d="M8631.27 1669.71V857.567H8788.07V971.728C8836.33 891.336 8908.17 851.086 9003.6 851.086C9020.75 851.086 9039.49 852.72 9059.86 855.933V1015.95C9044.34 1013.83 9030.88 1012.2 9019.66 1011.11C9008.44 1010.02 8999.29 1009.47 8992.32 1009.47C8914.6 1009.47 8857.52 1038.94 8821.03 1097.93C8816.23 1107.08 8811.93 1116.83 8808.17 1127.28C8804.41 1137.74 8801.2 1148.47 8798.53 1159.47C8795.81 1170.47 8793.85 1180.93 8792.49 1190.84C8791.12 1200.76 8790.2 1209.74 8789.65 1217.75C8789.11 1225.27 8788.67 1234.53 8788.46 1245.47C8788.18 1256.48 8788.07 1268.95 8788.07 1282.89V1669.66H8631.27V1669.71Z" fill="#003097"/>
<path d="M9207.56 1669.71V518.301H9364.37V1180.88L9685.17 857.624H9889.42L9510.67 1231.53L9895.85 1669.77H9678.75L9364.37 1300.71V1669.77H9207.56V1669.71Z" fill="#003097"/>
<path d="M6438.78 1508.66C6438.78 1561.82 6453.98 1602.83 6484.37 1631.75C6511.77 1657.78 6548.86 1672 6595.54 1674.56V1448.53V1020.91V518.301H6438.73V1508.66H6438.78Z" fill="#003097"/>
</svg>
