<?xml version="1.0" encoding="utf-8"?>
<!-- Generator: Adobe Illustrator 23.0.1, SVG Export Plug-In . SVG Version: 6.00 Build 0)  -->
<svg version="1.1" xmlns="http://www.w3.org/2000/svg" xmlns:xlink="http://www.w3.org/1999/xlink" x="0px" y="0px"
	 viewBox="0 0 2239.89 708.26" style="enable-background:new 0 0 2239.89 708.26;" xml:space="preserve">
<style type="text/css">
	.st0{fill:#13C1AC;}
	.st1{fill:#FFFFFF;}
</style>
<g id="LAYOUT">
</g>
<g id="GUIDES">
</g>
<g id="EXAMPLES">
	<g>
		<path class="st0" d="M394.06,177c-41.22,0-70.94,21.8-87.88,45.1c-0.92,1.27-2.66,1.59-3.98,0.75
			c-8.7-5.5-23.42-12.87-43.87-12.87c-43.55,0-81.33,36.41-81.33,81.33c0,34.27,19.11,57.06,29.94,65.78
			c1.17,0.94,1.48,2.6,0.69,3.87c-7.13,11.63-14.25,32.28-14.25,47.61c0,47.23,37.96,85.52,85.2,85.52
			c14.56,0,25.53-2.71,30.06-4.05c1.32-0.39,2.72,0.16,3.42,1.34c8.12,13.79,32.93,39.86,74.37,39.86
			c42.45,0,84.1-33.25,87.87-78.66c0.11-1.32,1.1-2.41,2.4-2.66c38.17-7.17,65.34-42.73,65.34-81.71
			c0-38.81-23.37-61.16-37.21-70.32c-0.9-0.59-1.38-1.62-1.29-2.7C507.81,243.45,468.07,177,394.06,177z M230.54,403.39
			c0-9.46,2.09-19.09,7.06-27.9c0.3-0.53,1.43-2.2,3.31-1.76c7.43,2.08,14.8,3.14,23.68,3.14c9.03,0,15.75-7.17,15.75-15.98
			c0-8.14-6.18-15.83-16.76-15.83c-20.21,0-46.78-17.57-46.78-50c0-27.87,22.28-49.45,48.6-49.45c10.21,0,18.91,1.96,29.83,8.74
			c3.92,2.43,8.02,6.69,15.89,6.69c6.49,0,10.7-3.89,12.61-7.7c4.98-9.96,24.96-37.47,68.71-37.47c38.53,0,73.6,36.21,73.6,75.32
			c0,22.3-7.51,34.82-15.96,47.38c-2.92,4.34-3.37,7.57-3.37,10.75c0,10.04,8.08,16.91,16.91,16.91c13.4,0,22.26-16.41,28.09-26.9
			c0.71-1.28,2.51-1.39,3.37-0.2c3.64,5.07,9.28,16.88,9.28,32.43c0,22.01-17.68,47.41-49.47,50.23
			c-10.16,0.9-15.77,6.34-16.19,16.6c-1.17,28.72-24.19,50.43-52.87,50.43c-35.57,0-55.09-35-51.38-63.76
			c1.51-11.7-7.77-17.93-15.96-17.93c-7.41,0-12.72,3.58-15.75,9.46c-4.9,9.51-5.16,28.77-4.22,36.37
			c0.34,2.73-0.99,4.24-11.65,4.24C258.54,457.16,230.54,436,230.54,403.39z"/>
		<g>
			<path class="st0" d="M1890.72,512.98c0.32,10.42,8.18,18.28,18.28,18.28c10.09,0,17.96-7.89,18.28-18.28l2.09-68.77
				c0.19-6.21,6.48-10.42,12.24-8.12c10.11,4.04,21.14,6.26,32.69,6.28c47.37,0.05,86.75-37.74,88.53-85.08
				c1.9-50.43-38.42-91.92-88.44-91.92c-48.88,0-88.5,39.62-88.5,88.5C1885.89,368.53,1890.72,512.98,1890.72,512.98z
				 M1974.39,400.14c-25.55,0-46.27-20.72-46.27-46.27s20.72-46.27,46.27-46.27c25.55,0,46.27,20.72,46.27,46.27
				S1999.94,400.14,1974.39,400.14z"/>
			<g>
				<path class="st0" d="M891.93,283.63c-0.57-11.5-9-18.01-18.12-18.01c-9.18,0-17.36,6.51-18.03,18.01l-4.6,78.91
					c-1.45,24.85-15.7,37.61-33.86,37.61c-17.6,0-31.61-11.65-33.53-32.56l-5.73-61.19c-1.02-10.94-8.84-16.49-16.49-16.49
					c-0.13,0-0.27,0.01-0.4,0.01c-0.13,0-0.26-0.01-0.4-0.01c-7.65,0-15.47,5.55-16.49,16.49l-5.73,61.19
					c-1.92,20.91-15.93,32.56-33.53,32.56c-18.16,0-32.41-12.75-33.86-37.61l-4.6-78.91c-0.67-11.5-8.85-18.01-18.03-18.01
					c-9.12,0-17.55,6.51-18.12,18.01l-3.76,76.94c-2.41,49.27,39.76,81.81,78.37,81.81c19.18,0,36.73-6.86,50.36-18.25
					c3.36-2.81,8.22-2.81,11.58,0c13.63,11.39,31.18,18.25,50.36,18.25c38.61,0,80.79-32.54,78.37-81.81L891.93,283.63z"/>
				<path class="st0" d="M1785.97,265.37c-48.88,0-88.5,39.62-88.5,88.5s39.62,88.5,88.5,88.5s88.5-39.62,88.5-88.5
					S1834.85,265.37,1785.97,265.37z M1785.97,400.14c-25.55,0-46.27-20.72-46.27-46.27s20.72-46.27,46.27-46.27
					c25.55,0,46.27,20.72,46.27,46.27S1811.53,400.14,1785.97,400.14z"/>
				<path class="st0" d="M1598.55,265.37c-48.88,0-88.5,39.62-88.5,88.5c0,3.62,0.29,15.13,0.74,30.42
					c-0.33,9.16-7.15,15.85-15.9,15.85c-8.79,0-14.78-6.33-15.84-14.5l-5.6-42.9c-0.02-0.13-0.03-0.26-0.05-0.39l-0.04-0.34l0,0
					c-5.79-43.27-42.85-76.64-87.71-76.64c-48.49,0-87.86,39-88.48,87.34l-0.01-0.03c0,0-0.43,13.27,1.27,29.49
					c0.98,9.31-9.04,17.98-17.83,17.98c-10.21,0-17.67-7.96-18.2-25.53c-0.18-5.92-5.48-180.37-5.48-180.37l0-0.28
					c-0.25-8.23-7.9-16.95-18.26-16.95c-10.52,0-17.97,8.72-18.23,17.23l-5.47,180.37c-0.51,16.89-11.4,25.53-23.73,25.53
					c-12.46,0-23.1-8.64-23.61-25.53c-0.63-20.79-5.47-180.37-5.47-180.37c-0.27-8.98-8.32-17.23-18.23-17.23
					c-9.02,0-17.95,7.04-18.26,17.23c0,0-5.59,184.02-5.77,189.94c-0.28,9.22-7.12,15.96-15.91,15.96s-14.78-6.33-15.84-14.5
					l-5.7-43.63l0,0.01c-5.76-43.04-42.45-76.29-86.99-76.64c-48.97-0.39-89.22,39.53-89.22,88.5c0,48.87,39.62,88.49,88.5,88.49
					c20.58,0,39.52-7.03,54.55-18.81h0c2.28-1.77,4.75-2.19,6.43-2.19c13.24,0,14.88,20.99,48.27,20.99
					c13.43,0,27.45-9.08,34.76-14.62c2.92-2.22,6.97-2.15,9.82,0.16c6.89,5.55,21.25,14.47,42.48,14.47
					c18.48,0,30.67-7.74,37.03-13.29c3.05-2.66,7.57-2.66,10.62,0c6.35,5.55,18.36,13.29,35.91,13.29
					c29.31,0,41.28-20.99,50.01-20.99c2.75,0,4.57,0.75,6.67,2.31c15,11.7,33.88,18.68,54.38,18.68c20.58,0,39.52-7.03,54.55-18.81
					h0c2.28-1.77,4.75-2.19,6.43-2.19c13.24,0,16.35,20.99,43.27,20.99c8.29,0,14.2-3.15,20.99-7.05c0.65-0.38,1.48,0.08,1.5,0.83
					c1.24,38.94,2.5,76.83,2.5,76.83c0.32,10.42,8.18,18.28,18.28,18.28c10.09,0,17.96-7.89,18.28-18.28l2.09-68.77
					c0.19-6.27,6.56-10.38,12.39-8.06c10.07,4,21.05,6.21,32.55,6.22c47.37,0.05,86.75-37.74,88.53-85.08
					C1688.88,306.85,1648.56,265.37,1598.55,265.37z M994.71,400.14c-25.55,0-46.27-20.72-46.27-46.27s20.72-46.27,46.27-46.27
					c25.55,0,46.27,20.72,46.27,46.27S1020.27,400.14,994.71,400.14z M1385.64,400.14c-25.55,0-46.27-20.72-46.27-46.27
					s20.72-46.27,46.27-46.27c25.55,0,46.27,20.72,46.27,46.27S1411.19,400.14,1385.64,400.14z M1598.55,400.14
					c-25.55,0-46.27-20.72-46.27-46.27s20.72-46.27,46.27-46.27c25.55,0,46.27,20.72,46.27,46.27S1624.1,400.14,1598.55,400.14z"/>
			</g>
		</g>
	</g>
</g>
</svg>
